<svg id="cheqd-logo--colorless" xmlns="http://www.w3.org/2000/svg" width="319.03" height="352.298" viewBox="0 0 319.03 352.298">
  <g transform="translate(-40 -24)">
    <path d="M354.351,289.853l1.754-3.509a33.871,33.871,0,0,0-60.5-30.132l-.945,1.484-18.622,32.292a30.861,30.861,0,0,1-2.6,4.511l-.077.116-.135.231-.154.212c-.521.733-1.08,1.446-1.658,2.121h63.04c9.1,0,16.135-2.6,19.914-7.365Z"/>
    <path d="M201.9,376.279h2.237c12.974-.173,25.042-3.123,33.987-8.309l92.555-53.421a53.935,53.935,0,0,0,8.791-6.42q-2.428.231-5.032.231H158.1a31.467,31.467,0,0,1-5.07-.482l31.578,54.694c4.819,8.367,10.95,13.225,17.273,13.726Z"/>
    <path d="M49.851,287.289c.386.655.752,1.33,1.157,1.986,6.632,11.123,15.21,20.107,24.175,25.293l92.535,53.421a54.713,54.713,0,0,0,9.967,4.434c-.945-1.33-1.851-2.756-2.718-4.26l-42.547-73.7a29.6,29.6,0,0,1-2.506-4.338L88.755,218.83A31.97,31.97,0,0,1,85,212.256c-.154-.385-.308-.79-.463-1.195L53.109,265.5c-4.82,8.348-5.976,16.059-3.258,21.766Z"/>
    <path d="M79.578,197.354l5.571-9.64a31.391,31.391,0,0,1,3.605-6.246L132.3,106.031l.174-.309.135-.231.154-.212c.54-.771,1.1-1.5,1.7-2.2H71.424c-9.62,0-16.868,2.853-20.473,8.059-.4.694-.81,1.388-1.2,2.082C43.47,124.5,40,136.414,40,146.728V253.59a53.721,53.721,0,0,0,1.157,10.834c.675-1.484,1.465-2.988,2.313-4.472L79.6,197.373Z"/>
    <path d="M143.659,91.919H248.417a33.316,33.316,0,0,1,4.395.482L221.235,37.707C216.376,29.3,210.227,24.443,203.884,24h-2.159c-12.994.174-25.042,3.123-33.988,8.29L75.183,85.73a54.965,54.965,0,0,0-8.791,6.4q2.429-.231,5.032-.231h72.235Z"/>
    <path d="M267.02,94.695l28.648,50.086a34.054,34.054,0,0,0,58.683-34.567l-1.388-2.255C346.7,98.319,338.755,90.4,330.677,85.73L238.122,32.29a54.286,54.286,0,0,0-9.928-4.415c.945,1.33,1.851,2.757,2.718,4.241L267.04,94.695Z"/>
  </g>
</svg>
