<svg xmlns="http://www.w3.org/2000/svg" fill="none" viewBox="0 0 37 26"><defs><linearGradient id="a" x1="5.543" x2="14.789" y1="12.955" y2="5.717" gradientUnits="userSpaceOnUse"><stop stop-color="#B00017"/><stop offset=".616" stop-color="#3F00C7"/><stop offset="1" stop-color="#003C56"/></linearGradient><linearGradient id="c" x1="29.854" x2="24.449" y1="4.021" y2="17.984" gradientUnits="userSpaceOnUse"><stop stop-color="#fff" stop-opacity="0"/><stop offset=".271" stop-color="#fff" stop-opacity=".5"/><stop offset=".516" stop-color="#fff" stop-opacity=".8"/><stop offset=".802" stop-color="#fff" stop-opacity=".5"/><stop offset="1" stop-color="#fff" stop-opacity="0"/></linearGradient><linearGradient id="d" x1="18.043" x2="13.257" y1="4.578" y2="16.942" gradientUnits="userSpaceOnUse"><stop stop-color="#fff" stop-opacity="0"/><stop offset=".271" stop-color="#fff" stop-opacity=".5"/><stop offset=".516" stop-color="#fff" stop-opacity=".8"/><stop offset=".802" stop-color="#fff" stop-opacity=".5"/><stop offset="1" stop-color="#fff" stop-opacity="0"/></linearGradient><linearGradient id="e" x1="17.135" x2="11.559" y1="4.021" y2="18.426" gradientUnits="userSpaceOnUse"><stop stop-color="#fff" stop-opacity="0"/><stop offset=".271" stop-color="#fff" stop-opacity=".5"/><stop offset=".516" stop-color="#fff" stop-opacity=".8"/><stop offset=".802" stop-color="#fff" stop-opacity=".5"/><stop offset="1" stop-color="#fff" stop-opacity="0"/></linearGradient><linearGradient id="f" x1="26.919" x2="21.62" y1="4.021" y2="17.708" gradientUnits="userSpaceOnUse"><stop stop-color="#fff" stop-opacity="0"/><stop offset=".271" stop-color="#fff" stop-opacity=".5"/><stop offset=".516" stop-color="#fff" stop-opacity=".8"/><stop offset=".802" stop-color="#fff" stop-opacity=".5"/><stop offset="1" stop-color="#fff" stop-opacity="0"/></linearGradient><radialGradient id="b" cx="0" cy="0" r="1" gradientTransform="rotate(14.589 -22.746 9.037) scale(37.716 53.2014)" gradientUnits="userSpaceOnUse"><stop stop-color="#F99974"/><stop offset=".167" stop-color="#FE4366"/><stop offset=".402" stop-color="#F43D88"/><stop offset=".553" stop-color="#D72DE5"/><stop offset=".688" stop-color="#3B7BEA"/><stop offset=".828" stop-color="#30B1CD"/><stop offset=".927" stop-color="#40CAD7"/><stop offset="1" stop-color="#09ACA2"/></radialGradient></defs><g fill-rule="evenodd" stroke-width="0" clip-rule="evenodd"><path fill="url(#a)" d="M12.182.095c.678.187 1.199.617 1.581 1.107.777.995.9 2.248.772 3.327-.13 1.108-.544 2.262-1.124 3.318-.966 1.757-2.572 3.546-4.6 4.41-.014 1.275.105 2.551.387 3.757.332 1.42.884 2.72 1.69 3.815 1.088 1.475 2.082 2.185 2.891 2.505.793.313 1.53.299 2.216.108.912-.255 1.715-.824 2.277-1.34-1.846-2.844-2.869-6.652-3.066-10.06-.114-1.958.037-3.89.525-5.531.479-1.61 1.355-3.166 2.87-3.99.891-.485 1.907-.654 2.895-.26.923.368 1.54 1.117 1.95 1.857.807 1.462 1.18 3.572 1.27 5.728a28.808 28.808 0 0 1-.598 6.997c-.39 1.84-.982 3.657-1.814 5.19.426.435.86.797 1.284 1.045.643.376 1.109.41 1.516.251.517-.202 1.029-.652 1.497-1.382-.601-1.598-.995-3.47-1.24-5.33A40.66 40.66 0 0 1 25.1 8.05c.072-1.14.2-2.2.383-3.097.174-.844.433-1.723.863-2.364.244-.364.646-.837 1.27-1.064.748-.273 1.458-.072 1.96.298.43.317.71.749.892 1.097.195.373.355.797.488 1.236.524 1.724.825 4.318.828 7.027.003 2.723-.294 5.724-1.062 8.262-.161.534-.35 1.07-.572 1.59.362.645.706.995.979 1.158.22.133.452.186.81.085 0 0 .045-.014.13-.077.087-.065.199-.17.319-.321.242-.306.478-.753.626-1.314.29-1.1.22-2.578-.764-4.13a1.6 1.6 0 0 1 2.703-1.715c1.477 2.33 1.663 4.73 1.156 6.659-.251.953-.675 1.808-1.212 2.486-.52.657-1.232 1.253-2.097 1.495-1.193.333-2.334.167-3.32-.425a5.132 5.132 0 0 1-1.18-.995 5.762 5.762 0 0 1-2.03 1.369c-1.602.626-3.113.223-4.297-.47a9.05 9.05 0 0 1-1.656-1.273c-.86.766-2.043 1.56-3.46 1.956a6.576 6.576 0 0 1-4.25-.212c-1.508-.595-2.95-1.76-4.294-3.584-1.11-1.508-1.82-3.227-2.23-4.985a18.74 18.74 0 0 1-.47-3.966c-2.318-.217-4.16-1.748-5.034-3.761C-.549 6.419-.094 3.067 2.532.49a1.6 1.6 0 1 1 2.241 2.284C3.066 4.45 2.93 6.394 3.513 7.74c.433.996 1.247 1.69 2.284 1.833.346-2.677 1.141-5.15 2.136-6.872.565-.976 1.335-1.959 2.342-2.426.55-.255 1.213-.371 1.907-.18ZM9.317 8.054c.489-.5.93-1.096 1.29-1.748.429-.78.678-1.54.75-2.15.041-.347.02-.586-.017-.743a4.746 4.746 0 0 0-.636.89c-.533.922-1.034 2.231-1.387 3.75Zm19.118 6.3a32.5 32.5 0 0 0 .148-3.167 30.452 30.452 0 0 0-.226-3.755c-.025.262-.047.536-.064.82a37.502 37.502 0 0 0 .142 6.102Zm-8.252 3.624c.32-.847.591-1.792.805-2.8.437-2.056.612-4.259.531-6.199-.083-1.992-.428-3.505-.875-4.314-.152-.276-.268-.382-.314-.418a.845.845 0 0 0-.2.085c-.458.25-.97.873-1.332 2.091-.353 1.188-.496 2.73-.398 4.433.143 2.461.775 5.04 1.783 7.122Z"/><path fill="url(#b)" d="M12.182.095c.678.187 1.199.617 1.581 1.107.777.995.9 2.248.772 3.327-.13 1.108-.544 2.262-1.124 3.318-1.07 1.944-2.92 3.927-5.26 4.654a1.593 1.593 0 0 1-1.18.253c-2.948.365-5.354-1.347-6.393-3.74C-.549 6.42-.094 3.068 2.532.49a1.6 1.6 0 1 1 2.241 2.284C3.066 4.45 2.93 6.394 3.513 7.74c.433.996 1.247 1.69 2.284 1.833.346-2.677 1.141-5.15 2.136-6.872.565-.976 1.335-1.959 2.342-2.426.55-.255 1.213-.371 1.907-.18ZM9.317 8.054c.489-.5.93-1.096 1.29-1.748.429-.78.678-1.54.75-2.15.041-.347.02-.586-.017-.743a4.746 4.746 0 0 0-.636.89c-.533.922-1.034 2.231-1.387 3.75Zm14.802 7.789c-.488 2.298-1.29 4.563-2.484 6.278-.606.87-2.347 2.723-4.779 3.402a6.576 6.576 0 0 1-4.25-.212c-1.508-.595-2.95-1.76-4.294-3.584-1.11-1.508-1.82-3.227-2.23-4.985a1.6 1.6 0 1 1 3.116-.728c.332 1.42.884 2.72 1.69 3.815 1.088 1.475 2.082 2.185 2.891 2.505.793.313 1.53.299 2.216.108.912-.255 1.715-.824 2.277-1.34-1.846-2.844-2.869-6.652-3.066-10.06-.114-1.958.037-3.89.525-5.531.479-1.61 1.355-3.166 2.87-3.99.891-.485 1.907-.654 2.895-.26.923.368 1.54 1.117 1.95 1.857.807 1.462 1.18 3.572 1.27 5.728a28.808 28.808 0 0 1-.598 6.997Zm-3.79-11.596a.847.847 0 0 0-.2.085c-.457.25-.968.873-1.33 2.091-.354 1.188-.497 2.73-.399 4.433.143 2.461.775 5.04 1.783 7.122.32-.847.591-1.792.805-2.8.437-2.056.612-4.259.531-6.199-.083-1.992-.428-3.505-.875-4.314-.152-.276-.268-.382-.314-.418Zm9.09 18.227c-.76 1.255-1.78 2.3-3.15 2.836a4.512 4.512 0 0 1-2.875.14 1.6 1.6 0 0 1 .842-3.088c.314.086.587.077.868-.033.517-.202 1.029-.652 1.497-1.382-1.04-2.767-1.493-6.44-1.563-9.666-.04-1.83.042-3.587.233-5.05.096-.73.222-1.411.383-2.003.154-.567.369-1.16.69-1.639.245-.364.647-.837 1.27-1.064.749-.273 1.46-.072 1.96.298.43.317.71.749.893 1.097.195.373.355.797.488 1.236.524 1.724.825 4.318.828 7.027.003 2.723-.294 5.724-1.062 8.262-.187.62-.411 1.24-.681 1.839a1.603 1.603 0 0 1-.622 1.19Zm-.984-8.12c.102-1.048.15-2.119.148-3.167a30.453 30.453 0 0 0-.226-3.756 33.4 33.4 0 0 0-.12 3.78 38.12 38.12 0 0 0 .198 3.143Zm4.308-.127a1.6 1.6 0 0 1 2.209.494c1.477 2.33 1.663 4.73 1.156 6.659-.251.953-.675 1.808-1.212 2.486-.52.657-1.232 1.253-2.097 1.495a1.6 1.6 0 0 1-.86-3.082s.044-.015.128-.078c.088-.065.2-.17.32-.321.242-.306.478-.753.626-1.314.29-1.1.22-2.578-.764-4.13a1.6 1.6 0 0 1 .494-2.209Z"/><path fill="url(#c)" d="M32.743 14.227a1.6 1.6 0 0 1 2.208.494c1.478 2.33 1.664 4.73 1.156 6.659-.25.953-.675 1.808-1.212 2.486-.52.657-1.232 1.253-2.097 1.494a1.6 1.6 0 0 1-.86-3.082s.045-.014.129-.077c.088-.065.2-.17.32-.321.241-.306.478-.754.626-1.314.289-1.1.22-2.578-.764-4.13a1.6 1.6 0 0 1 .494-2.209Z" opacity=".6"/><path fill="url(#d)" d="M4.795.511a1.6 1.6 0 0 1-.022 2.263C3.066 4.45 2.93 6.394 3.513 7.74 4.1 9.09 5.386 9.884 6.981 9.505c1.344-.32 2.739-1.587 3.626-3.2.429-.78.678-1.539.75-2.15.076-.64-.06-.913-.115-.983a1.6 1.6 0 0 1 2.521-1.97c.777.994.9 2.247.772 3.327-.13 1.108-.544 2.262-1.124 3.318-1.134 2.061-3.147 4.166-5.69 4.771-3.287.782-6.017-1.011-7.143-3.604C-.549 6.418-.094 3.067 2.532.49A1.6 1.6 0 0 1 4.795.51Z" opacity=".6"/><path fill="url(#e)" d="M24.118 15.843c-.488 2.298-1.29 4.563-2.483 6.277-.606.872-2.347 2.724-4.779 3.403a6.575 6.575 0 0 1-4.251-.213c-1.507-.594-2.949-1.76-4.293-3.583a1.6 1.6 0 1 1 2.576-1.898c1.087 1.475 2.082 2.185 2.891 2.505.793.312 1.53.299 2.216.107 1.474-.412 2.663-1.644 3.014-2.148.856-1.232 1.538-3.04 1.979-5.115.436-2.056.612-4.259.53-6.199-.082-1.992-.427-3.505-.874-4.314-.152-.276-.268-.383-.315-.418a.847.847 0 0 0-.2.085A1.6 1.6 0 1 1 18.6 1.521c.892-.485 1.907-.654 2.896-.26.923.368 1.54 1.117 1.95 1.857.807 1.462 1.18 3.572 1.27 5.728a28.807 28.807 0 0 1-.598 6.997Z" opacity=".6"/><path fill="url(#f)" d="M30.72 19.445c-.739 2.446-2.06 4.93-4.451 5.865a1.6 1.6 0 1 1-1.166-2.98c.95-.372 1.88-1.58 2.555-3.81.647-2.14.927-4.803.924-7.333-.003-2.544-.292-4.793-.69-6.102a1.099 1.099 0 0 0-.005-.018 1.6 1.6 0 0 1-1.543-2.477c.245-.365.646-.838 1.27-1.065.749-.273 1.459-.072 1.96.297.43.318.71.75.893 1.098.195.373.355.797.488 1.236.524 1.724.824 4.318.828 7.027.003 2.723-.294 5.724-1.062 8.262Z" opacity=".6"/></g></svg>