<svg xmlns="http://www.w3.org/2000/svg" viewBox="0 0 24 24">
    <g stroke-width="0" transform="translate(-4 -4)">
        <path d="M28,16A12,12,0,1,1,16,4,12,12,0,0,1,28,16Z" fill="#fff"></path>
        <path d="M16,27.368A11.368,11.368,0,1,0,4.632,16,11.368,11.368,0,0,0,16,27.368ZM16,28A12,12,0,1,0,4,16,12,12,0,0,0,16,28Z" fill-rule="evenodd"></path>
        <path d="M26.1,16A10.1,10.1,0,1,1,16,5.895,10.105,10.105,0,0,1,26.1,16Z"></path>
        <path d="M16,7.47A8.527,8.527,0,1,0,24.526,16,8.527,8.527,0,0,0,16,7.47m-2.452,7.5-1.31,1.308h1.31V17.7a1.837,1.837,0,0,1-3.673,0V14.3a1.837,1.837,0,1,1,3.673,0v.674Zm8.577,1.308V17.7a1.837,1.837,0,0,1-3.673,0V14.3a1.837,1.837,0,0,1,3.673,0v.674l-1.31,1.31h1.31Z" fill="#fff"></path>
    </g>
</svg>
