<svg xmlns="http://www.w3.org/2000/svg" width="240" height="240" viewBox="0 0 240 240">
  <g transform="translate(0 0)">
    <path d="M-203-1072a120.885,120.885,0,0,1-24.184-2.438,119.385,119.385,0,0,1-22.525-6.992,119.993,119.993,0,0,1-20.384-11.064,120.861,120.861,0,0,1-17.76-14.653,120.864,120.864,0,0,1-14.653-17.76,120.014,120.014,0,0,1-11.064-20.384,119.4,119.4,0,0,1-6.992-22.525A120.886,120.886,0,0,1-323-1192a120.886,120.886,0,0,1,2.438-24.184,119.4,119.4,0,0,1,6.992-22.525,120.02,120.02,0,0,1,11.064-20.384,120.868,120.868,0,0,1,14.653-17.76,120.867,120.867,0,0,1,17.76-14.653,120,120,0,0,1,20.384-11.064,119.386,119.386,0,0,1,22.525-6.992A120.885,120.885,0,0,1-203-1312a120.886,120.886,0,0,1,24.184,2.438,119.387,119.387,0,0,1,22.525,6.992,120,120,0,0,1,20.384,11.064,120.874,120.874,0,0,1,17.76,14.653,120.877,120.877,0,0,1,14.653,17.76,120.014,120.014,0,0,1,11.064,20.384,119.4,119.4,0,0,1,6.992,22.525A120.886,120.886,0,0,1-83-1192a120.886,120.886,0,0,1-2.438,24.184,119.4,119.4,0,0,1-6.992,22.525,120.014,120.014,0,0,1-11.064,20.384,120.867,120.867,0,0,1-14.653,17.76,120.861,120.861,0,0,1-17.76,14.653,120,120,0,0,1-20.384,11.064,119.386,119.386,0,0,1-22.525,6.992A120.886,120.886,0,0,1-203-1072Zm-35.724-140.793h43.144v34.739a47.2,47.2,0,0,0,3.259,17.775,37.911,37.911,0,0,0,9.223,13.542,40.833,40.833,0,0,0,14.356,8.626,55.413,55.413,0,0,0,18.658,3.027h6.94v-20.223h-6.67a22.877,22.877,0,0,1-8.964-1.81,22.93,22.93,0,0,1-7.316-4.935,22.943,22.943,0,0,1-4.931-7.317,22.876,22.876,0,0,1-1.807-8.956v-34.469h29.688v-20.048h-29.688V-1266l-22.748,12.146v21.013h-43.144a32.261,32.261,0,0,0-10.181,1.57,26.7,26.7,0,0,0-8.018,4.256,25.688,25.688,0,0,0-5.753,6.26,26.534,26.534,0,0,0-3.385,7.581,27.031,27.031,0,0,0-.911,8.293,26.387,26.387,0,0,0,1.708,8.243,26.652,26.652,0,0,0,11.7,13.533l23.519,15.808a7.04,7.04,0,0,1,2.575,3.531,6.412,6.412,0,0,1-.019,3.962,6.226,6.226,0,0,1-2.344,3.158,7.668,7.668,0,0,1-4.453,1.3h-32v20.241h32a32.575,32.575,0,0,0,10.221-1.565,26.755,26.755,0,0,0,8.036-4.243,25.579,25.579,0,0,0,5.757-6.242,26.383,26.383,0,0,0,3.381-7.562,26.957,26.957,0,0,0,.906-8.3,26.435,26.435,0,0,0-1.724-8.258,26.777,26.777,0,0,0-11.734-13.561l-23.326-15.808a7.192,7.192,0,0,1-2.629-3.634,6.75,6.75,0,0,1,.02-4.1,6.2,6.2,0,0,1,2.3-3.129A7.448,7.448,0,0,1-238.724-1212.793Z" transform="translate(323 1312)" fill="#e6007a"/>
  </g>
</svg>
