<svg xmlns="http://www.w3.org/2000/svg" width="52.798" height="52.82" viewBox="0 0 52.798 52.82">
  <g transform="translate(-0.115 -244.202)">
    <path id="path1828" d="M26.538,248.9a21.733,21.733,0,1,0,21.68,21.733A21.706,21.706,0,0,0,26.538,248.9ZM2.659,270.635a23.879,23.879,0,1,1,23.879,23.937A23.907,23.907,0,0,1,2.659,270.635Z" fill="#ff7b7c" fill-rule="evenodd"/>
    <path id="path1830" d="M35.964,264.932l-6.024-.251,4.093-4.443-1.649-1.648-4.436,4.09-.242-6.038H25.381l-.251,6.038-4.432-4.1-1.644,1.653,4.085,4.447-6.028.238v2.336l6.024.251-4.093,4.443,1.649,1.648,4.366-4.028.193,9.784-3.487.256v2.173l3.539.269.066,3.4h2.326l.07-3.394,3.575-.273V279.6l-3.522-.256.2-9.78,4.362,4.033,1.644-1.648-4.08-4.447,6.024-.242Z" fill="#ff7b7c" fill-rule="evenodd"/>
  </g>
</svg>
