<svg xmlns="http://www.w3.org/2000/svg" width="117.458" height="44.718" viewBox="0 0 117.458 44.718">
  <g id="gravitybridge-logo--colorless" transform="translate(-3.548 -0.009)">
    <path d="M74.361,42.188l-1.218.2h-.091c-.088.021-.18.021-.268.046l-.3.043c-15.874,2.591-29.3,2.938-41.021,1.069a52.384,52.384,0,0,1-11.77-3.1C15,38.434,12.333,35.7,11.772,32.314,10.36,24.03,22.617,17.393,26.657,15.229,37.371,9.414,50.577,5.243,67.009,2.463S97.3-.743,109.312,1.224h0C117.157,2.5,127.737,5.036,129,12.446s-7.888,13.3-14.888,17.083C103.66,35.18,90.889,39.271,75.039,42.06l-.3.046c-.088.024-.18.024-.268.046S74.382,42.188,74.361,42.188Zm-1.367-.448h.043l1.233-.225h.024c.088-.021.18-.021.268-.043l.3-.046c15.77-2.755,28.481-6.838,38.887-12.464,15.874-8.588,14.86-14.461,14.55-16.388C127,4.774,113.6,2.6,109.2,1.918h0C97.256-.009,83.494.4,67.127,3.176s-29.486,6.91-40.141,12.662C11.1,24.432,12.107,30.3,12.421,32.235c1.321,7.8,14.729,9.952,19.132,10.671,11.657,1.881,25.02,1.547,40.823-1.053l.3-.046c.088-.021.18-.021.268-.046Z" transform="translate(-8.111)"/>
    <path d="M95.368,46.96c-.3.046-.648.113-1.008.155-.673.113-1.434.225-2.265.359l-.088.024c-.359.043-.74.113-1.145.155s-.74.113-1.142.158h-.064c-.609.088-1.254.155-1.906.247h-.088l-.831.088c-.225.024-.472.046-.694.091h-.03c-5.087.56-9.931.9-14.37.962-8.071.113-14.55-.627-19.214-2.2-4.472-1.5-7.316-3.79-8.43-6.8a8.652,8.652,0,0,1-.426-1.592,9.167,9.167,0,0,1,1.726-6.9c2.152-3.075,6.232-6.052,12.129-8.762a114.693,114.693,0,0,1,20.757-6.884C83.5,14.792,87.7,14.031,89.735,13.7s6.323-1.008,11.615-1.544a116.893,116.893,0,0,1,21.9-.381c6.479.627,11.322,2.082,14.373,4.348a9.1,9.1,0,0,1,3.809,5.915,8.649,8.649,0,0,1,.113,1.7h0c-.091,3.206-2,6.275-5.651,9.133-3.888,3.017-9.758,5.861-17.448,8.418C114.184,42.7,109.5,43.98,104.5,45.122a4.182,4.182,0,0,1-.515.113l-1.726.374c-.451.088-.874.18-1.3.268l-.426.088-.715.137c-.247.043-.518.11-.792.155l-.423.091c-.831.155-1.592.3-2.265.423C96.025,46.847,95.687,46.908,95.368,46.96Zm-7.754.448h.113c.627-.067,1.254-.155,1.86-.247h.07c.384-.046.764-.113,1.145-.155s.789-.113,1.142-.158l.088-.021c.831-.137,1.58-.247,2.244-.338.718-.113,1.279-.2,2-.335.67-.113,1.431-.271,2.262-.426l.426-.091c.247-.046.515-.088.761-.155l.7-.137.426-.088c.426-.088.852-.18,1.3-.268l1.723-.381c.18-.046.338-.07.518-.113,4.993-1.12,9.645-2.42,13.886-3.818,7.611-2.533,13.426-5.334,17.238-8.318,3.5-2.725,5.313-5.62,5.4-8.622h0a7.627,7.627,0,0,0-.11-1.58,8.473,8.473,0,0,0-3.565-5.48c-2.959-2.168-7.666-3.608-14.032-4.214a118.944,118.944,0,0,0-21.771.381c-5.288.518-9.526,1.184-11.569,1.522s-6.232,1.12-11.411,2.375a116,116,0,0,0-20.645,6.838c-5.785,2.676-9.767,5.547-11.873,8.549a8.586,8.586,0,0,0-1.614,6.412,8.221,8.221,0,0,0,.393,1.48c1.051,2.824,3.745,4.98,8.023,6.41,4.6,1.547,10.985,2.265,18.988,2.152,4.439-.067,9.258-.381,14.327-.962H86.1a6.557,6.557,0,0,0,.694-.091l.807-.113Z" transform="translate(-30.29 -7.933)"/>
    <path d="M69.08,40.471l-.067-.021h-.064l.064.627c.2-.021.381-.021.591-.043a13.036,13.036,0,0,1,1.58-.027,17.172,17.172,0,0,1-2.1-.536ZM75.3,42.139Zm1.105-.594h0l.073-.015Zm.247-.037h-.018v.037h.046m64.644-19.387A9.194,9.194,0,0,0,137.5,16.24c-3.044-2.265-7.891-3.723-14.373-4.351a118.351,118.351,0,0,0-21.89.381c-5.276.539-9.538,1.187-11.612,1.55s-6.244,1.1-11.469,2.375A115.643,115.643,0,0,0,57.4,23.078c-5.888,2.71-9.977,5.669-12.129,8.765a9.127,9.127,0,0,0-1.726,6.9,8.2,8.2,0,0,0,.3,1.2c.043.134.088.262.134.4.03.082.064.164.1.244,1.184,2.883,3.991,5.087,8.333,6.549,4.664,1.577,11.143,2.308,19.211,2.2h.134l.091-.11c1.163-1.218,2.414-2.506,3.669-3.589a.766.766,0,0,1,.076-.064l.694-.609H75.22c-5.985.058-10.811-.478-14.34-1.629h.009a30.651,30.651,0,0,1,8.028-2.2h.015a26.791,26.791,0,0,0,6.326,1.017h0a32.046,32.046,0,0,1-4.338-.536l-.761-.167-.3-.091c-.3-.079-.591-.161-.865-.25l-.067-.015H68.9a11.237,11.237,0,0,1-1.218-.448,34.553,34.553,0,0,0-7.849,2.436l-.734.3-.046.021h0l.789.3c3.516,1.321,8.479,1.994,14.7,1.973-1.053.941-2.061,1.994-3.026,3-7.937.113-14.257-.627-18.83-2.152-4.128-1.379-6.777-3.431-7.916-6.113-.046-.1-.085-.195-.125-.3s-.079-.219-.116-.332a8.432,8.432,0,0,1-.286-1.148,8.573,8.573,0,0,1,1.614-6.412c2.076-3,6.055-5.873,11.84-8.54A115.263,115.263,0,0,1,78.35,16.837c5.176-1.254,9.374-2.04,11.414-2.378s6.275-1.008,11.569-1.522a116.256,116.256,0,0,1,21.768-.381c6.366.609,11.073,2.037,14.035,4.214a8.489,8.489,0,0,1,3.562,5.48,7.41,7.41,0,0,1,.113,1.577c-.088,3-1.906,5.894-5.4,8.631-3.79,2.959-9.551,5.76-17.1,8.272-1.257-.648-2.6-1.321-3.958-1.906,5.87-2.064,10.33-4.317,13.277-6.683l.652-.539h-.134l-.718-.04a28.96,28.96,0,0,0-9.776.673l-.067.024-.067.043a28.18,28.18,0,0,1-5.6,2.959l-.3.113c-.609.247-1.254.493-1.9.715l-.4.137v-.073c.024-.158.049-.3.067-.472a18.306,18.306,0,0,0,.146-2.71,3.4,3.4,0,0,0-.018-.429c-.018-.143-.015-.286-.027-.432s-.027-.3-.037-.441-.033-.3-.055-.438c-.024-.2-.055-.4-.088-.594s-.082-.393-.119-.591c-.018-.1-.04-.2-.061-.3a16.219,16.219,0,0,0-1.644-4.369,15.611,15.611,0,0,0-.843-1.352c-.091-.134-.186-.271-.286-.4s-.164-.225-.253-.335-.183-.237-.28-.353a16.62,16.62,0,0,0-3.672-3.331,16.135,16.135,0,0,0-3.5-1.775,16.723,16.723,0,0,0-8-.828,7.708,7.708,0,0,0-.789.122h-.07a16.763,16.763,0,0,0-7.285,3.431,15.347,15.347,0,0,0-2.6,2.655l-.064.079a17.049,17.049,0,0,0-1.385,2.082c-.079.146-.155.3-.231.441s-.122.237-.177.359-.1.195-.143.3a15.875,15.875,0,0,0-.591,1.5h0c-.049.137-.094.277-.14.414s-.082.274-.122.414-.061.213-.088.32a.1.1,0,0,1,0,.061.7.7,0,0,0-.03.107c-.027.094-.049.2-.07.286v.064c-.018.076-.033.149-.049.225s-.03.137-.043.2c-.03.143-.055.3-.082.435-.055.326-.1.648-.14.974l-.037.335c0,.149-.021.3-.033.448a18.209,18.209,0,0,0,0,2c.015.265.034.533.064.8a.572.572,0,0,0,.018.174c.024.195.055.368.082.545a.265.265,0,0,0,0,.11V35.9a.193.193,0,0,0,.015.1v.024a.252.252,0,0,0,.015.107,1.743,1.743,0,0,1,.04.234,16.91,16.91,0,0,0,.591,2.277,15.871,15.871,0,0,0,1.267,2.892h0c.088.155.18.3.274.469l.1.158h-.11l-.81.04h1.114l.591-.024h0l-.3-.487c-.033-.055-.067-.107-.1-.164a15.261,15.261,0,0,1-1.425-3.087A15.723,15.723,0,0,1,77.3,36c-.043-.289-.088-.56-.113-.852-.018-.155-.033-.3-.046-.469a15.265,15.265,0,0,1,.183-4.08,15.752,15.752,0,0,1,3-6.948c.216-.277.444-.548.676-.81a15.787,15.787,0,0,1,1.878-1.827,16.087,16.087,0,0,1,7-3.252h.067l.338-.058.4-.067a15.926,15.926,0,0,1,7.69.81,15.625,15.625,0,0,1,3.349,1.678,15.831,15.831,0,0,1,6.7,9.742c.043.271.11.539.155.831a15.788,15.788,0,0,1,.225,2.241,16.476,16.476,0,0,1-.3,3.5.825.825,0,0,1-.027.146l-.113.582.56-.18.231-.079.731-.256c.673-.225,1.3-.472,1.93-.719l.3-.113a29.481,29.481,0,0,0,5.693-3,28.038,28.038,0,0,1,8.652-.694l-.024.018c-3,2.256-7.435,4.381-13.155,6.323l-.874.3h0l.843.332.07.027a47.338,47.338,0,0,1,4.771,2.25l.134.067h.091c7.718-2.6,13.581-5.419,17.469-8.464,3.653-2.85,5.559-5.915,5.648-9.133a8.632,8.632,0,0,0-.1-1.693ZM76.654,41.509h-.018v.037h.046M76.482,41.546Zm-.03.667h.712a7.01,7.01,0,0,1-.767-.027h-.271a.061.061,0,0,0-.034,0M68.94,40.459l.061.627c.2-.024.381-.024.594-.046a12.974,12.974,0,0,1,1.577-.024,18.417,18.417,0,0,1-2.1-.536l-.067-.021Zm.128.021L69,40.459h-.06l.061.627c.2-.024.381-.024.594-.046a12.974,12.974,0,0,1,1.577-.024,17.78,17.78,0,0,1-2.1-.557ZM76.4,41.534h0l.073-.015Zm.247-.037h-.018v.037h.046m-.027-.03H76.63v.03h.046m-.274,0h0l.073-.015ZM69.07,40.459,69,40.438h-.06l.064.627c.2-.021.381-.021.591-.043a13.033,13.033,0,0,1,1.58-.027,17.175,17.175,0,0,1-2.1-.536Z" transform="translate(-30.202 -8.014)"/>
    <path d="M69.08,40.471l-.067-.021h-.064l.064.627c.2-.021.381-.021.591-.043a13.036,13.036,0,0,1,1.58-.027,17.172,17.172,0,0,1-2.1-.536ZM75.3,42.139Zm1.105-.594h0l.073-.015Zm.247-.037h-.018v.037h.046m64.644-19.387A9.194,9.194,0,0,0,137.5,16.24c-3.044-2.265-7.891-3.723-14.373-4.351a118.351,118.351,0,0,0-21.89.381c-5.276.539-9.538,1.187-11.612,1.55s-6.244,1.1-11.469,2.375A115.643,115.643,0,0,0,57.4,23.078c-5.888,2.71-9.977,5.669-12.129,8.765a9.127,9.127,0,0,0-1.726,6.9,8.2,8.2,0,0,0,.3,1.2c.043.134.088.262.134.4.03.082.064.164.1.244,1.184,2.883,3.991,5.087,8.333,6.549,4.664,1.577,11.143,2.308,19.211,2.2h.134l.091-.11c1.163-1.218,2.414-2.506,3.669-3.589a.766.766,0,0,1,.076-.064l.694-.609H75.22c-5.985.058-10.811-.478-14.34-1.629h.009a30.651,30.651,0,0,1,8.028-2.2h.015a26.791,26.791,0,0,0,6.326,1.017h0a32.046,32.046,0,0,1-4.338-.536l-.761-.167-.3-.091c-.3-.079-.591-.161-.865-.25l-.067-.015H68.9a11.237,11.237,0,0,1-1.218-.448,34.553,34.553,0,0,0-7.849,2.436l-.734.3-.046.021h0l.789.3c3.516,1.321,8.479,1.994,14.7,1.973-1.053.941-2.061,1.994-3.026,3-7.937.113-14.257-.627-18.83-2.152-4.128-1.379-6.777-3.431-7.916-6.113-.046-.1-.085-.195-.125-.3s-.079-.219-.116-.332a8.432,8.432,0,0,1-.286-1.148,8.573,8.573,0,0,1,1.614-6.412c2.076-3,6.055-5.873,11.84-8.54A115.263,115.263,0,0,1,78.35,16.837c5.176-1.254,9.374-2.04,11.414-2.378s6.275-1.008,11.569-1.522a116.256,116.256,0,0,1,21.768-.381c6.366.609,11.073,2.037,14.035,4.214a8.489,8.489,0,0,1,3.562,5.48,7.41,7.41,0,0,1,.113,1.577c-.088,3-1.906,5.894-5.4,8.631-3.79,2.959-9.551,5.76-17.1,8.272-1.257-.648-2.6-1.321-3.958-1.906,5.87-2.064,10.33-4.317,13.277-6.683l.652-.539h-.134l-.718-.04a28.96,28.96,0,0,0-9.776.673l-.067.024-.067.043a28.18,28.18,0,0,1-5.6,2.959l-.3.113c-.609.247-1.254.493-1.9.715l-.4.137v-.073c.024-.158.049-.3.067-.472a18.306,18.306,0,0,0,.146-2.71,3.4,3.4,0,0,0-.018-.429c-.018-.143-.015-.286-.027-.432s-.027-.3-.037-.441-.033-.3-.055-.438c-.024-.2-.055-.4-.088-.594s-.082-.393-.119-.591c-.018-.1-.04-.2-.061-.3a16.219,16.219,0,0,0-1.644-4.369,15.611,15.611,0,0,0-.843-1.352c-.091-.134-.186-.271-.286-.4s-.164-.225-.253-.335-.183-.237-.28-.353a16.62,16.62,0,0,0-3.672-3.331,16.135,16.135,0,0,0-3.5-1.775,16.723,16.723,0,0,0-8-.828,7.708,7.708,0,0,0-.789.122h-.07a16.763,16.763,0,0,0-7.285,3.431,15.347,15.347,0,0,0-2.6,2.655l-.064.079a17.049,17.049,0,0,0-1.385,2.082c-.079.146-.155.3-.231.441s-.122.237-.177.359-.1.195-.143.3a15.875,15.875,0,0,0-.591,1.5h0c-.049.137-.094.277-.14.414s-.082.274-.122.414-.061.213-.088.32a.1.1,0,0,1,0,.061.7.7,0,0,0-.03.107c-.027.094-.049.2-.07.286v.064c-.018.076-.033.149-.049.225s-.03.137-.043.2c-.03.143-.055.3-.082.435-.055.326-.1.648-.14.974l-.037.335c0,.149-.021.3-.033.448a18.209,18.209,0,0,0,0,2c.015.265.034.533.064.8a.572.572,0,0,0,.018.174c.024.195.055.368.082.545a.265.265,0,0,0,0,.11V35.9a.193.193,0,0,0,.015.1v.024a.252.252,0,0,0,.015.107,1.743,1.743,0,0,1,.04.234,16.91,16.91,0,0,0,.591,2.277,15.871,15.871,0,0,0,1.267,2.892h0c.088.155.18.3.274.469l.1.158h-.11l-.81.04h1.114l.591-.024h0l-.3-.487c-.033-.055-.067-.107-.1-.164a15.261,15.261,0,0,1-1.425-3.087A15.723,15.723,0,0,1,77.3,36c-.043-.289-.088-.56-.113-.852-.018-.155-.033-.3-.046-.469a15.265,15.265,0,0,1,.183-4.08,15.752,15.752,0,0,1,3-6.948c.216-.277.444-.548.676-.81a15.787,15.787,0,0,1,1.878-1.827,16.087,16.087,0,0,1,7-3.252h.067l.338-.058.4-.067a15.926,15.926,0,0,1,7.69.81,15.625,15.625,0,0,1,3.349,1.678,15.831,15.831,0,0,1,6.7,9.742c.043.271.11.539.155.831a15.788,15.788,0,0,1,.225,2.241,16.476,16.476,0,0,1-.3,3.5.825.825,0,0,1-.027.146l-.113.582.56-.18.231-.079.731-.256c.673-.225,1.3-.472,1.93-.719l.3-.113a29.481,29.481,0,0,0,5.693-3,28.038,28.038,0,0,1,8.652-.694l-.024.018c-3,2.256-7.435,4.381-13.155,6.323l-.874.3h0l.843.332.07.027a47.338,47.338,0,0,1,4.771,2.25l.134.067h.091c7.718-2.6,13.581-5.419,17.469-8.464,3.653-2.85,5.559-5.915,5.648-9.133a8.632,8.632,0,0,0-.1-1.693ZM76.654,41.509h-.018v.037h.046M76.482,41.546Zm-.03.667h.712a7.01,7.01,0,0,1-.767-.027h-.271a.061.061,0,0,0-.034,0M68.94,40.459l.061.627c.2-.024.381-.024.594-.046a12.974,12.974,0,0,1,1.577-.024,18.417,18.417,0,0,1-2.1-.536l-.067-.021Zm.128.021L69,40.459h-.06l.061.627c.2-.024.381-.024.594-.046a12.974,12.974,0,0,1,1.577-.024,17.78,17.78,0,0,1-2.1-.557ZM76.4,41.534h0l.073-.015Zm0,0h0l.073-.015Zm-7.33-1.075L69,40.438h-.06l.064.627c.2-.021.381-.021.591-.043a13.033,13.033,0,0,1,1.58-.027,17.175,17.175,0,0,1-2.1-.536Z" transform="translate(-30.202 -8.014)"/>
    <path d="M98.838,54.29l-.116.018H98.7c-.411,0-.819-.03-1.218-.055q-.755-.046-1.461-.119-1.181-.113-2.213-.3h0a18.629,18.629,0,0,1-2.39-.591l-.067-.024h-.067c-.432.049-.868.113-1.315.2a36.643,36.643,0,0,0-7.69,2.366c-3.044-1.148-4.95-2.816-5.693-4.956-.043-.116-.079-.234-.113-.356s-.055-.207-.076-.3-.049-.289-.067-.414a6.943,6.943,0,0,1,1.458-5.38l.088-.113c1.732-2.292,4.871-4.491,9.359-6.53A71.221,71.221,0,0,1,94.673,34.9c2.761-.913,5.8-1.748,9.015-2.521,1.431-.341,2.74-.642,3.927-.886l.174-.037a15.892,15.892,0,0,0-2.914,1.906,15.223,15.223,0,0,0-2.633,2.7l-.043.052c-.216.277-.42.56-.609.852a16.255,16.255,0,0,0-1.915,3.87h0c-.049.137-.094.274-.14.414s-.082.274-.122.414c-.018.061-.033.122-.049.186a1.245,1.245,0,0,1-.04.134c-.015.046,0,.04,0,.061a.608.608,0,0,0-.03.107c-.027.091-.049.2-.07.286V42.5c-.018.079-.033.152-.049.228s-.03.137-.043.2,0,.046,0,.07c-.027.116-.046.225-.067.341-.058.332-.1.664-.14,1,0,.11-.024.222-.034.335l-.037.444a18.267,18.267,0,0,0,0,2c.018.265.037.53.067.8a.539.539,0,0,0,0,.155c.024.2.055.381.082.563a.363.363,0,0,0,0,.061,2.047,2.047,0,0,0,.04.274c.03.2.067.393.11.591a.116.116,0,0,0,0,.061l.073.323c.1.432.213.834.335,1.218.03.1.064.2.1.3l.131.368c.046.125.091.247.14.371.1.244.2.49.3.731.046.1.091.195.14.3s.1.2.149.3c.134.277.28.548.432.813h0c.088.155.18.3.274.469l.1.158h-.11l-.81.037h1.16l.582-.024h0l-.286-.487-.1-.164a15.125,15.125,0,0,1-1.464-3.072,15.34,15.34,0,0,1-.591-2.436c-.046-.3-.091-.56-.113-.852-.021-.17-.04-.338-.052-.511a15.335,15.335,0,0,1,.2-4.037,15.734,15.734,0,0,1,3.044-6.951c.167-.213.338-.423.518-.627a15.8,15.8,0,0,1,9.033-5.273h0l-.107-.627h0q-.484.082-1.169.21c-1.726.3-4.36.837-7.492,1.577A93.274,93.274,0,0,0,87,37.131c-4.506,2.061-7.733,4.281-9.547,6.634l-.091.113A7.516,7.516,0,0,0,75.7,49.866q.037.2.082.393c.033.125.064.253.1.381s.058.2.088.283c.728,2.222,2.563,3.958,5.453,5.209l.052.024q.353.149.731.3l.134.043.113-.043.789-.329.043-.015A30.627,30.627,0,0,1,91.3,53.9h.03c.286.088.581.17.886.25-.3-.082-.591-.164-.865-.25l-.067-.018h-.03a11.24,11.24,0,0,1-1.218-.448c.432-.073.859-.134,1.273-.18h0l.064.627c.2-.021.381-.021.591-.043a13.029,13.029,0,0,1,1.58-.024,26.716,26.716,0,0,0,2.783.393c.393.04.789.067,1.218.094s.81.04,1.218.055H99V54.4h.3c.362,0,.728.021,1.075.021h.56a.076.076,0,0,1,0-.021h-.594c-.341,0-.7-.018-1.063-.021h-.262m-.164.636h.679a7.01,7.01,0,0,1-.767-.027h-.256m.3-.694h.046m2.043.046h-.591c-.344,0-.7,0-1.066-.018h-.256v.018h.3c.365,0,.728.021,1.075.021h.563a.049.049,0,0,1,0-.021Z" transform="translate(-52.581 -20.819)"/>
    <path d="M216.233,45.76l.113-.609a16.526,16.526,0,0,0,.335-3.653,14.865,14.865,0,0,0-.225-2.232c-.043-.289-.11-.56-.155-.828a15.831,15.831,0,0,0-6.7-9.742,15.633,15.633,0,0,0-3.349-1.681,15.962,15.962,0,0,0-7.69-.807l-.113-.648c1.522-.247,4.707-.74,8.744-1.12a96.551,96.551,0,0,1,17.238-.3h.046c5.02.451,8.829,1.5,11.365,3.139h0l.113.067a7.434,7.434,0,0,1,3.519,5.045,6.367,6.367,0,0,1,.088.9c.091,2.579-1.3,5.09-4.141,7.422l-.113.088h-.134a28.8,28.8,0,0,0-9.526.652,29.661,29.661,0,0,1-5.693,3l-.3.11c-.63.247-1.257.493-1.93.718-.3.113-.627.222-.965.335ZM203.111,25.538a16.952,16.952,0,0,1,3.349.831,15.868,15.868,0,0,1,3.5,1.775,16.665,16.665,0,0,1,5.334,5.785A16.113,16.113,0,0,1,216.95,38.3c.067.289.11.591.177.874a16.169,16.169,0,0,1,.225,2.332,17.317,17.317,0,0,1-.225,3.248l.4-.134c.652-.225,1.3-.469,1.906-.715l.3-.113a28.262,28.262,0,0,0,5.6-2.959l.067-.046.067-.024a28.929,28.929,0,0,1,9.639-.673c2.6-2.168,3.879-4.46,3.79-6.792a5.418,5.418,0,0,0-.091-.828,6.865,6.865,0,0,0-3.139-4.567l-.088-.067c-2.436-1.592-6.165-2.621-11.118-3.093h-.046a98.221,98.221,0,0,0-17.171.3C205.742,25.224,204.35,25.383,203.111,25.538Z" transform="translate(-138.033 -16.596)"/>
    <path d="M121.442,67.311v.018h.064Zm1.869.021h-.594c-.341,0-.7,0-1.063-.021l.034.024c.362,0,.728.018,1.075.018h.56a.061.061,0,0,1,0-.024Zm-2.046-.049-.143.024h0c-.414,0-.813-.03-1.218-.058q-.676-.032-1.312-.1a24.79,24.79,0,0,1-2.554-.359h0a17.546,17.546,0,0,1-2.229-.56l-.067-.021h-.067a7.686,7.686,0,0,1-4.725-3.529c-.073-.149-.146-.3-.207-.46-.03-.079-.064-.161-.091-.244a5.276,5.276,0,0,1-.222-.855,4.049,4.049,0,0,1,1.053-3.3,12.564,12.564,0,0,1,2.679-2.4,31.618,31.618,0,0,1,4.2-2.442,65.244,65.244,0,0,1,7.544-3.044l.049-.018h0c-.277.411-.533.831-.77,1.267-.079.143-.155.3-.231.441s-.122.234-.177.356-.1.2-.143.3a15.838,15.838,0,0,0-.591,1.5h0c-.049.14-.094.277-.14.414s-.082.274-.122.414-.061.213-.088.32a.088.088,0,0,1,0,.061.685.685,0,0,0-.027.107c-.027.094-.049.2-.07.286v.064c-.018.076-.034.149-.049.228s-.043.183-.061.274-.043.228-.064.341c-.058.332-.1.667-.143,1a3.2,3.2,0,0,1-.034.335c-.012.113-.021.3-.033.448a16.809,16.809,0,0,0,0,2c.018.265.037.533.067.8a.527.527,0,0,0,.015.155c.024.2.055.381.082.566a.532.532,0,0,0,0,.061,2.076,2.076,0,0,0,.04.271c.03.2.067.4.11.591a.109.109,0,0,0,0,.061l.073.326c.1.429.213.831.335,1.218.03.1.064.2.1.3l.131.368c.046.125.091.247.14.371.1.247.2.49.3.731.046.1.091.2.14.3s.1.2.149.3c.134.277.28.551.432.813h0c.088.158.18.3.274.469l.1.158h-.11l-.81.04h1.193l.581-.024h0L124.3,67.5a2.078,2.078,0,0,1-.113-.2,15.788,15.788,0,0,1-2.031-5.489c-.046-.3-.091-.56-.113-.852a15.526,15.526,0,0,1,.134-4.567,15.794,15.794,0,0,1,3.044-6.951l.5-.648.155-.195-.064.018-.968.3-.158.052h-.024a.067.067,0,0,0-.055.018q-2.366.789-4.445,1.6-2.168.865-3.988,1.778c-3.41,1.635-5.83,3.318-7.152,5a4.661,4.661,0,0,0-1.172,3.83,7.033,7.033,0,0,0,.2.743c.049.164.107.329.17.49.027.067.058.134.085.2a7.492,7.492,0,0,0,4.116,3.729h.033l.049.021c.435-.073.859-.134,1.276-.18h0l.064.627c.195-.021.381-.021.591-.043A12.388,12.388,0,0,1,116,66.763a26.731,26.731,0,0,0,2.783.4c.4.037.788.067,1.218.091s.81.043,1.218.055h.244m1.93.061a.106.106,0,0,1-.015-.024h-.618c-.344,0-.7,0-1.066-.018l.033.021c.365,0,.728.021,1.075.021Zm-1.885-.03.064-.015h-.064Zm-.2.661h.679a7.068,7.068,0,0,1-.77-.027h-.3m2.4-.609h-.594c-.341,0-.7-.015-1.063-.018h-.26v.018h.3c.362,0,.728.021,1.075.021h.56a.131.131,0,0,1-.027-.052Z" transform="translate(-74.963 -33.798)"/>
    <path d="M239.659,55.319l.113-.609a16.527,16.527,0,0,0,.335-3.653,14.867,14.867,0,0,0-.225-2.232c-.043-.289-.11-.56-.155-.828a15.831,15.831,0,0,0-6.7-9.742l-.9-.609,1.078-.021a75.432,75.432,0,0,1,9.133.4c3.769.448,6.591,1.218,8.433,2.329a4.621,4.621,0,0,1,2.463,3.185h0a6.388,6.388,0,0,1,.067,1.3c-.113,2.168-1.5,4.214-4.125,6.089l-.067.043a29.178,29.178,0,0,1-5.672,2.981l-.3.113c-.627.247-1.254.493-1.927.718-.3.113-.627.225-.965.335ZM234.222,38.3a16.565,16.565,0,0,1,4.481,5.176,16.212,16.212,0,0,1,1.665,4.375c.067.289.11.591.177.874a16.176,16.176,0,0,1,.225,2.332,17.319,17.319,0,0,1-.225,3.248l.4-.134c.652-.225,1.3-.469,1.906-.715l.3-.113a28.262,28.262,0,0,0,5.6-2.959l.067-.046c2.4-1.726,3.678-3.586,3.766-5.523a4.957,4.957,0,0,0-.067-1.142,4.092,4.092,0,0,0-2.146-2.71c-1.751-1.053-4.485-1.793-8.162-2.241a72.579,72.579,0,0,0-8-.423Z" transform="translate(-161.459 -26.155)"/>
    <path d="M147.645,94.268h-.594c-.341,0-.7-.015-1.063-.018l.033.021c.362,0,.728.018,1.075.018h.56a.049.049,0,0,1-.011-.021Zm1.2.609-.265-.463a1.391,1.391,0,0,1-.113-.2,15.1,15.1,0,0,1-1.413-3.063,15.381,15.381,0,0,1-.609-2.436c-.043-.3-.088-.56-.11-.849l-.067-.539h0l-.064.04-.381.247-.237.158h0a11.264,11.264,0,0,0-1.607,1.309,3.459,3.459,0,0,0-1.218,2.463v.116a2.2,2.2,0,0,0,.091.56c.015.061.037.122.055.183h0a3.291,3.291,0,0,0,.648,1.1,4.319,4.319,0,0,0,.661.609l.03.021a.172.172,0,0,1,.024.024c.4.024.8.043,1.218.055h.015l-.043-.021-.043-.021-.043-.021-.088-.067h-.018l-.2-.116a3.934,3.934,0,0,1-1.218-1.047,2.369,2.369,0,0,1-.4-.834c0-.058-.021-.122-.027-.2s-.027-.174-.04-.259a2.805,2.805,0,0,1,1.008-2.064,9.742,9.742,0,0,1,1.285-1.087h0v.14a.193.193,0,0,0,.015.091.024.024,0,0,0,0,.021.835.835,0,0,0,.015.085q.046.3.11.609a.1.1,0,0,0,0,.058l.073.326c.1.429.213.831.335,1.218.03.107.064.2.1.3l.131.368c.046.122.091.247.14.368.1.247.2.49.3.731.046.1.091.2.14.3s.1.2.149.3c.134.274.28.548.432.813h0c.088.155.18.3.274.466l.1.161h-.11l-.81.037h1.16l.581-.024Zm-1.184-.591a.077.077,0,0,1,0-.021h-.594c-.341,0-.7-.015-1.062-.021l.033.021c.362,0,.728.021,1.075.021Zm0-.021h-.594c-.341,0-.7-.015-1.062-.021h.03c.365,0,.728.018,1.075.018h.563a.049.049,0,0,1,0-.021Z" transform="translate(-99.296 -60.736)"/>
    <path d="M256.756,77.846l.113-.609a16.525,16.525,0,0,0,.335-3.653,14.862,14.862,0,0,0-.225-2.232c-.043-.289-.11-.56-.155-.828L256.71,70l.539.134a11.159,11.159,0,0,1,2.107.715,3.43,3.43,0,0,1,2.131,2.107c.021.113.043.225.067.359a3.8,3.8,0,0,1-1.233,3.206l-.046.046-.067.021c-.627.247-1.254.493-1.927.719-.3.11-.63.222-.965.335Zm.828-6.932.067.335a16.172,16.172,0,0,1,.225,2.332,17.349,17.349,0,0,1-.225,3.252l.4-.134c.627-.225,1.233-.451,1.827-.7a3.245,3.245,0,0,0,1.008-2.6h0c-.021-.091-.021-.18-.043-.3-.158-.627-.761-1.181-1.775-1.656a10.132,10.132,0,0,0-1.489-.527Z" transform="translate(-178.556 -48.682)"/>
    <path d="M293.058,110.276c-1.011-.426-2.222-1.053-3.5-1.7l-.74-.381.3-.591.74.381c1.276.648,2.466,1.279,3.452,1.681Z" transform="translate(-200.89 -74.835)"/>
    <path d="M268.5,82.936l-.426-.515a16.7,16.7,0,0,1,5.6-3c.067-.018.131-.043.2-.067l.155.648c-.043.024-.113.024-.155.046a16.177,16.177,0,0,0-5.374,2.888Z" transform="translate(-186.457 -55.186)"/>
    <path d="M334.167,79.325c-1.973-.113-4.217-.381-6.7-.718l-.2-.021c-2.621-.3-5.337-.652-8-.828l.033-.667c2.694.155,5.4.493,8.05.828l.2.021c2.487.3,4.707.609,6.68.694Z" transform="translate(-222.07 -53.614)"/>
    <path d="M261.079,61.868l-.539-.4c1.145-1.48,2.131-2.643,3.072-3.675a20.658,20.658,0,0,1,8.9-6.089l.067-.024a53.684,53.684,0,0,1,9.8-2.019c3.252-.393,6.567-.648,9.742-.874l.338-.021c3.249-.234,6.293-.46,9.213-.84l.088.673c-2.935.381-6.007.609-9.255.831l-.338.021c-3.185.225-6.479.472-9.742.874a52.244,52.244,0,0,0-9.684,1.994l-.067.021a20.023,20.023,0,0,0-8.607,5.9C263.186,59.243,262.224,60.409,261.079,61.868Z" transform="translate(-181.22 -33.332)"/>
    <path d="M259.026,38.592l-.566-.359c.609-.941,1.145-1.748,1.659-2.463a25.784,25.784,0,0,1,8.452-7.983l.046-.021a.493.493,0,0,0,.113-.07,49.326,49.326,0,0,1,8.652-3.55h.021c2.938-.913,5.873-1.659,9.392-2.53l.2-.046c2.9-.718,5.626-1.382,8.22-2.171l.2.627c-2.6.789-5.358,1.48-8.251,2.2l-.2.046c-3.51.886-6.445,1.617-9.38,2.536h-.021a47.423,47.423,0,0,0-8.543,3.5c-.046.024-.067.046-.091.046l-.043.021a25.15,25.15,0,0,0-8.22,7.8C260.171,36.866,259.632,37.673,259.026,38.592Z" transform="translate(-179.773 -13.488)"/>
    <path d="M252.435,19.658l-.585-.335a26.247,26.247,0,0,1,3.565-4.956c.113-.113.225-.247.338-.356A30.878,30.878,0,0,1,261.4,9.568l.067-.043c2.04-1.3,4.238-2.466,6.479-3.653l.338-.18c1.827-.965,3.55-1.863,5.127-2.783l.338.609c-1.617.941-3.349,1.827-5.157,2.8l-.335.18c-2.268,1.184-4.463,2.353-6.509,3.653l-.067.043a29.079,29.079,0,0,0-5.48,4.3l-.347.32a29.92,29.92,0,0,0-3.419,4.847Z" transform="translate(-175.176 -2.018)"/>
    <path d="M223.987,12.238l-.627-.247c.247-.609.539-1.218.9-1.973.609-1.233,1.276-2.466,1.906-3.608l.222-.384c.563-1.029,1.166-2.085,1.684-3.118l.609.3c-.518,1.029-1.123,2.107-1.684,3.139l-.222.381c-.627,1.145-1.3,2.353-1.906,3.586C224.5,11.051,224.212,11.657,223.987,12.238Z" transform="translate(-155.359 -2.018)"/>
    <path d="M154.682,25.6c-.448-.518-.941-1.008-1.48-1.547-.913-.913-1.885-1.775-2.959-2.74l-.3-.25c-.941-.849-1.827-1.635-2.688-2.463l.475-.478c.828.807,1.726,1.614,2.667,2.436l.3.247c1.075.965,2.04,1.842,2.984,2.761.536.536,1.029,1.053,1.5,1.577Z" transform="translate(-102.421 -12.597)"/>
    <path d="M153.427,78.221a29.663,29.663,0,0,1-5.693,3l-.3.113c-.627.247-1.257.493-1.93.718l-.731.256-.231.079-.56.18.113-.581a1.126,1.126,0,0,1,.027-.146c-.691.228-1.44.457-2.247.706-1.434.423-2.984.828-4.685,1.218s-3.48.8-5.307,1.133c-.831.158-1.568.3-2.219.4s-1.391.225-2.244.359c-1.927.3-3.653.56-5.288.74-1.751.195-3.407.359-4.978.448-.715.04-1.449.061-2.152.079h-.076a1.405,1.405,0,0,0,.1.164l.3.487h.046c.417,0,.834-.03,1.245-.049l.609-.033c1.58-.091,3.251-.247,5-.448,1.638-.18,3.364-.426,5.313-.743.362-.046.706-.1,1.035-.152l.566-.094.2-.034.441-.076c.652-.113,1.413-.247,2.241-.4,1.86-.338,3.653-.719,5.358-1.12.761-.177,1.486-.359,2.186-.545h.037c.874-.231,1.7-.469,2.509-.7.874-.247,1.681-.515,2.436-.761l.2-.07c.262-.088.515-.177.767-.268.67-.222,1.3-.469,1.924-.715l.3-.113a29.385,29.385,0,0,0,5.693-3,28.487,28.487,0,0,1,8.6-.7l.027-.018a28.043,28.043,0,0,0-8.627.686Zm-41.311,8.7-.143.024h0c-.414,0-.813-.03-1.218-.058q-.676-.032-1.312-.1a24.784,24.784,0,0,1-2.554-.359h0a17.547,17.547,0,0,1-2.229-.56l-.067-.021h-.067c-.42.049-.846.107-1.282.18h0a35.365,35.365,0,0,0-7.84,2.436l-.737.3-.049.024.052.018.722.274c3.7,1.382,8.945,2.061,15.6,1.973h.125c1.939-.024,4.028-.113,6.177-.268l.381-.021c.134-.021.3-.021.448-.046l.18-.021c.9-.067,1.775-.134,2.621-.225.518-.043,1.011-.11,1.48-.155l.965-.113c.426-.046.852-.113,1.254-.158l.113-.021q2.019-.237,3.9-.539c.673-.088,1.236-.18,1.7-.268s1.053-.18,1.614-.3c1.321-.247,2.624-.518,3.924-.81.448-.088.9-.177,1.367-.3l.913-.225c.426-.113.852-.195,1.3-.3.807-.18,1.638-.4,2.487-.627l.518-.134c.2-.046.381-.113.581-.155l.067-.024c2.031-.575,4-1.169,5.833-1.787l.085-.027h.021c6.287-2.131,11.021-4.488,14.1-7l.609-.5.043-.04-.852-.043a28.791,28.791,0,0,0-9.773.673l-.067.021-.067.046a28.091,28.091,0,0,1-5.6,2.956l-.3.113c-.609.247-1.254.493-1.906.718l-.3.107h0l-.63.222-.174.064c-.691.228-1.44.457-2.247.706C140.448,83,138.9,83.4,137.2,83.8s-3.486.767-5.313,1.1c-.831.158-1.568.3-2.219.393s-1.391.225-2.244.359c-1.927.3-3.653.56-5.288.74-1.751.2-3.407.359-4.978.448-.715.043-1.449.064-2.152.082h-.274a5.28,5.28,0,0,0-.539.018h-.609c-.344,0-.7,0-1.066-.018h-.259v.046h.3c.365,0,.728.021,1.075.021h.563l-.015-.021h.015c.085.155.18.3.271.466l.1.161h.819c.417,0,.834-.03,1.242-.052l.609-.033c1.577-.088,3.252-.247,5-.448,1.635-.18,3.349-.426,5.313-.74.359-.046.706-.1,1.032-.152l.566-.094.2-.037.441-.073c.648-.113,1.41-.247,2.241-.4,1.86-.338,3.653-.719,5.358-1.12.758-.18,1.486-.359,2.183-.548h.037c.874-.228,1.7-.466,2.509-.7.874-.247,1.684-.515,2.436-.761.067-.024.134-.046.2-.073.262-.085.515-.174.764-.265.673-.225,1.3-.472,1.927-.718l.3-.113a29.736,29.736,0,0,0,5.693-3,27.8,27.8,0,0,1,8.6-.7h.049c-2.99,2.265-7.4,4.369-13.155,6.323h0l-.889.3c-1.6.524-3.273,1.026-5.008,1.5l-.067.021c-.2.046-.381.113-.594.158l-.627.155c-.807.225-1.614.426-2.375.609-.448.113-.874.195-1.3.3l-.913.222c-.472.091-.913.2-1.367.3-1.3.268-2.6.539-3.9.789-.63.113-1.184.2-1.684.3s-1.032.18-1.681.268c-1.233.18-2.563.381-3.879.539l-.113.021c-.393.067-.828.113-1.254.158l-.965.11c-.469.067-.962.113-1.455.158-.852.067-1.726.158-2.6.225l-.155.021c-.158.021-.3.021-.448.046l-.384.021c-1.942.14-3.821.225-5.593.259h-.84c-5.973.058-10.79-.475-14.309-1.62H96.5a30.545,30.545,0,0,1,8.047-2.213h-.061a11.234,11.234,0,0,1-1.218-.448c.432-.073.859-.134,1.273-.18h0l.064.627c.2-.021.381-.021.609-.043a12.974,12.974,0,0,1,1.577-.024,26.717,26.717,0,0,0,2.783.393c.393.04.789.067,1.218.094s.807.04,1.218.055h.247" transform="translate(-65.814 -53.43)"/>
    <path d="M94.768,54.731a26.055,26.055,0,0,0-4.886-3.349l-.551-.262a31.4,31.4,0,0,0-6.7-2.241c-2.286-.539-4.685-.913-7.13-1.279l-.393-.067c-2.043-.3-3.958-.609-5.83-.965l.134-.648c1.854.344,3.784.633,5.8.938l.393.067c2.466.384,4.871.74,7.176,1.279a32.079,32.079,0,0,1,6.838,2.308l.536.268a25.686,25.686,0,0,1,5.023,3.452Z" transform="translate(-48.189 -31.934)"/>
    <path d="M62.262,82.927c-.9-.694-1.723-1.321-2.53-1.882a26.96,26.96,0,0,0-10.248-4.752l-.222-.046a40.5,40.5,0,0,0-9.133-.539H40.1c-3.252.113-6.637.451-9.618.74h-.067c-3.093.3-6.007.609-8.719.718l-.024-.673c2.691-.113,5.6-.4,8.677-.718h.067c2.984-.3,6.369-.627,9.642-.737h.024a40.259,40.259,0,0,1,9.3.56l.225.043A27.483,27.483,0,0,1,60.1,80.513c.807.591,1.659,1.184,2.563,1.906Z" transform="translate(-15.073 -52.156)"/>
    <path d="M58.8,97.917h-.2c-.347,0-.712,0-1.078-.018l-.033-.024h0c-.77-.487-1.47-.913-2.131-1.276-.3-.164-.609-.326-.874-.475l-.079-.04h0a22.093,22.093,0,0,0-9.624-2.859h-.712a45.509,45.509,0,0,0-9.27,1.142l-.338.07-.271.058c-3.044.648-6.089,1.5-8.829,2.259l-.368.1-.329.085h0c-3.185.913-6.189,1.729-8.99,2.311l-.154-.65c2.761-.582,5.757-1.4,8.9-2.3h.046l.335-.091.3-.085c2.74-.761,5.836-1.607,8.878-2.289l.3-.067.3-.067A46.139,46.139,0,0,1,43.8,92.54h.664a22.028,22.028,0,0,1,9.773,2.707l.521.274.149.079c1.136.609,2.381,1.361,3.848,2.317H58.8Z" transform="translate(-10.796 -64.36)"/>
    <path d="M134.883,107.246h-.18c-.417,0-.825-.03-1.218-.055s-.813-.055-1.218-.094l-.134-.03-.18-.04a14.244,14.244,0,0,0-2.213-.3h-.25a12.975,12.975,0,0,0-1.577.024c-.2.024-.381.024-.591.046l-.064-.627v-.046a5.732,5.732,0,0,1,.609-.043,14.833,14.833,0,0,1,4.9.475c.5.134,1,.286,1.522.463l.2.07h.046l.067.043.183.073h.046a.2.2,0,0,0,.058,0Z" transform="translate(-88.517 -73.751)"/>
    <path d="M53.067,121.9l-.247-.609c1.927-.81,3.943-1.8,6.074-2.85l.158-.067c2.369-1.166,4.819-2.366,7.285-3.407l.247.609c-2.436,1.029-4.871,2.216-7.24,3.385l-.158.088C57.037,120.109,55.006,121.1,53.067,121.9Z" transform="translate(-36.74 -79.961)"/>
    <path d="M157.956,108.27c-.3.046-.648.113-1.008.155-.673.113-1.434.225-2.265.359l-.2.024-1.029.134c-.359.046-.74.113-1.142.155h-.07c-.609.091-1.254.158-1.906.25h-.067l-.828.088a151.3,151.3,0,0,1-15.125,1.032l-.788.021.539-.609q1.8-1.939,3.787-3.7l.088-.088h.113c2.219-.024,4.622-.137,7.1-.338l.18-.021c.913-.067,1.775-.158,2.6-.225.514-.046,1.032-.113,1.522-.155l.9-.113c.426-.046.828-.091,1.218-.158l.137-.021c1.346-.158,2.646-.359,3.879-.539.648-.088,1.218-.18,1.681-.268s1.053-.18,1.681-.3c1.3-.247,2.6-.515,3.9-.789.448-.091.9-.195,1.367-.3l1.011-.247c.4-.088.807-.18,1.218-.289q1.142-.271,2.35-.609h0l.63-.155c2.286-.627,4.485-1.279,6.521-1.973l.137-.024.088.024a53.918,53.918,0,0,1,4.911,2.308l.715.359-.749.259A152.8,152.8,0,0,1,166.3,106.53l-1.346.3c-.493.113-.962.2-1.41.3l-.426.088-.719.134c-.247.046-.515.113-.761.158l-.426.088c-.831.158-1.592.3-2.265.426a5,5,0,0,1-.989.246Zm-7.754.448h.088c.63-.067,1.257-.155,1.86-.247h.067c.381-.046.764-.113,1.12-.155s.718-.091,1.032-.137l.18-.021c.831-.134,1.577-.247,2.244-.335a8.573,8.573,0,0,1,1.008-.158c.3-.046.648-.113.986-.18.67-.113,1.431-.268,2.262-.426l.426-.088c.247-.046.493-.091.761-.158l.7-.134.426-.091c.448-.088.913-.195,1.413-.3l1.321-.3c5-1.12,9.685-2.366,13.919-3.745-1.3-.673-2.667-1.321-4.01-1.86-2.018.673-4.2,1.343-6.457,1.948l-.518.134c-.852.225-1.681.451-2.487.627-.4.091-.807.2-1.218.3l-1.032.247c-.472.113-.913.2-1.367.3-1.3.3-2.624.56-3.924.807-.627.113-1.184.225-1.681.3s-1.032.18-1.7.268q-1.886.3-3.9.539l-.134.024c-.4.043-.807.088-1.218.155l-.913.113c-.493.046-1.008.113-1.547.158-.852.088-1.726.155-2.621.222l-.18.024c-2.469.177-4.819.3-7,.335-1.056.913-2.107,1.97-3.093,3,4.415-.088,9.213-.448,14.257-1.032l.941-.134Z" transform="translate(-92.878 -69.243)"/>
    <path d="M124.918,137.492l-.448-.5c.807-.715,1.748-1.723,2.74-2.777l.56-.609.493.472-.56.591C126.689,135.741,125.749,136.749,124.918,137.492Z" transform="translate(-86.576 -92.926)"/>
    <rect width="0.673" height="4.908" transform="translate(78.652 28.9) rotate(-63.89)"/>
    <path d="M151.426,112.21l-.021.021h0c-.222.216-1.723,1.681-2.761,2.719l-.033.034-.359.359-.49-.338.043-.046.046-.043a30.473,30.473,0,0,1,2.74-2.67h0l.81-.037Z" transform="translate(-102.776 -78.042)"/>
    <path d="M134.561,108.26h-.3l-.81.037h-.834a7.1,7.1,0,0,1-.77-.027h-.868a.693.693,0,0,1-.113,0H130.7a31.1,31.1,0,0,1-4.338-.536l-.761-.167-.3-.134c-.3-.079-.591-.161-.865-.25l-.067-.015h-.021a11.236,11.236,0,0,1-1.218-.448c.432-.073.859-.134,1.273-.18h0l.064.627c.2-.021.381-.021.591-.043a12.441,12.441,0,0,1,1.58-.027,26.714,26.714,0,0,0,2.783.4c.393.037.789.067,1.2.091s.81.043,1.218.055h.021l.073-.015h.152v.027h.289c.365,0,.728.021,1.075.021H134a.076.076,0,0,1,0-.021h0c.088.155.18.3.271.466l.1.161Z" transform="translate(-85.637 -74.098)"/>
    <path d="M184.731,47.621c-.024.155-.046.3-.076.475s-.076.4-.122.609l-.03.14v.03h0l-.18.061c-.877.3-1.735.548-2.457.767-.789.231-1.617.46-2.515.691h-.036q-1.026.265-2.168.536c-1.927.466-3.711.816-5.352,1.126-.691.131-1.407.256-2.247.4l-.454.082-.2.037-.566.094c-.323.049-.673.1-1.035.149-1.9.3-3.653.551-5.325.74s-3.41.344-5.014.451l-.591.033c-.411.021-.828.037-1.245.049h-.831l-.1-.158c-.094-.158-.186-.3-.274-.469h0c-.152-.271-.3-.542-.432-.813-.052-.1-.1-.195-.149-.3s-.094-.2-.14-.3c-.113-.244-.213-.487-.3-.731-.049-.125-.094-.247-.14-.371s-.091-.265-.134-.393l-.094-.28c-.122-.4-.234-.789-.335-1.218l-.073-.326a.11.11,0,0,0,0-.061c-.024-.113-.049-.225-.07-.341s-.037-.186-.055-.283l-.046-.3-.091-.609V47a16.48,16.48,0,0,1,2.688-10.96c.2-.3.417-.609.642-.913h0a17.858,17.858,0,0,1,2.646-2.74,16.723,16.723,0,0,1,6.177-3.121q.524-.14,1.059-.247l.816-.137a16.5,16.5,0,0,1,15.259,6c.094.116.2.234.28.35s.17.225.253.338.2.268.286.4c.277.411.542.831.789,1.267a16.768,16.768,0,0,1,1.656,4.348c.043.14.085.274.116.408a5.473,5.473,0,0,1,.116.548v.033c.034.2.061.393.088.591.021.146.04.3.052.441s.027.3.04.438.018.286.027.435,0,.262,0,.393v.033a15.077,15.077,0,0,1-.113,2.716Z" transform="translate(-105.557 -19.962)"/>
  </g>
</svg>
