<svg version="1.0" xmlns="http://www.w3.org/2000/svg" viewBox="0 0 80 80">
  <g stroke-width="0" transform="translate(950 186)">
    <path d="M54.637,71.34H3.643A3.6,3.6,0,0,1,0,67.794V18.149A3.6,3.6,0,0,1,3.643,14.6H53.28l8.569-7.5H24v5.286H16.712V3.546A3.6,3.6,0,0,1,20.355,0H71.348a3.692,3.692,0,0,1,3.434,2.29,3.543,3.543,0,0,1-1,3.892l-16.712,14.6a3.721,3.721,0,0,1-2.43.9H7.284V64.248H53.277l8.569-7.507H20.355a3.6,3.6,0,0,1-3.643-3.546V23.918H24V49.646H71.348a3.692,3.692,0,0,1,3.434,2.29,3.543,3.543,0,0,1-1,3.892l-16.712,14.6A3.721,3.721,0,0,1,54.637,71.34Z" transform="translate(-947 -182)"/>
  </g>
</svg>
