<svg xmlns="http://www.w3.org/2000/svg" width="100" height="66.678" viewBox="0 0 100 66.678">
  <g id="assetmantle-logo--colorless" transform="translate(-9 -15.666)">
    <g transform="translate(9 15.666)">
      <path d="M51.332,14.668H18a10,10,0,0,0-10,10V71.333a10,10,0,0,0,18.132,5.8h0L59.467,30.466a10,10,0,0,0-8.132-15.8ZM24.667,38a6.668,6.668,0,1,1,4.715-1.952A6.667,6.667,0,0,1,24.667,38Z" transform="translate(-8 -14.666)" fill="#0d0a03"/>
      <path d="M40.332,50A8.333,8.333,0,1,0,32,41.666,8.333,8.333,0,0,0,40.332,50Z" transform="translate(28 13.336)" fill="#0d0a03"/>
      <path d="M89.737,24.667V71.332A10,10,0,0,1,69.9,73.164a11.05,11.05,0,0,1-.168-1.832v-7.6A10,10,0,0,0,51.6,58l-5.2,7.3L38.037,77.032a10,10,0,0,1-16.2-11.7h0L55.169,18.667a10,10,0,0,1,7.9-4H79.737A10,10,0,0,1,89.737,24.667Z" transform="translate(10.263 -14.665)" fill="#fffdfa"/>
    </g>
  </g>
</svg>
