<svg id="irisnet-logo--colorless" xmlns="http://www.w3.org/2000/svg" width="90" height="90" viewBox="0 0 90 90">
  <g transform="translate(-5 -5)">
    <path d="M50.275,5c.226.514.459,1.026.676,1.544.325.775.629,1.558.959,2.33.235.549.509,1.08.747,1.627.482,1.112.945,2.232,1.428,3.343.434,1,.89,1.989,1.326,2.988.551,1.261,1.092,2.527,1.64,3.789.4.928.807,1.855,1.221,2.778a.6.6,0,0,0,.591.411,13.918,13.918,0,0,1,1.416.128c.664.075,1.328.159,1.991.24q.919.113,1.837.23c.693.09,1.385.19,2.079.272.451.054.9.08,1.356.124Q68.5,24.9,69.45,25c.4.042.8.092,1.2.138.7.08,1.39.163,2.085.239.5.055,1.008.089,1.509.15.734.089,1.466.2,2.2.291.593.073,1.188.129,1.781.2.7.08,1.389.167,2.085.246.6.069,1.209.13,1.814.2.758.082,1.515.167,2.273.245.309.032.621.034.929.073.754.1,1.507.2,2.26.308.426.06.853.121,1.277.191.16.026.211.125.108.267-.236.325-.472.65-.713.971-.773,1.029-1.553,2.053-2.322,3.085-.461.619-.9,1.257-1.36,1.874-.508.676-1.045,1.329-1.549,2.008-.469.633-.9,1.294-1.367,1.931-.847,1.165-1.71,2.318-2.556,3.485-.349.482-.653,1-1.007,1.475-.4.539-.844,1.043-1.238,1.586a.739.739,0,0,0-.1.539,4.753,4.753,0,0,0,.324.794q.818,1.876,1.639,3.752c.351.8.71,1.6,1.063,2.4.456,1.034.908,2.07,1.366,3.1.082.184.2.355.27.542.237.61.441,1.234.7,1.836.333.784.715,1.546,1.055,2.328.5,1.148.97,2.308,1.471,3.455.476,1.09.981,2.168,1.463,3.256.431.974.846,1.955,1.273,2.931q.753,1.72,1.519,3.434c.1.226.044.322-.189.306-.525-.037-1.051-.075-1.575-.131-.685-.073-1.368-.169-2.053-.243-.5-.054-1.01-.079-1.512-.134-.654-.073-1.305-.172-1.959-.244-.851-.094-1.7-.163-2.554-.26-.8-.091-1.589-.213-2.385-.307-.645-.076-1.293-.128-1.939-.195q-1.491-.154-2.981-.313c-.052-.005-.1-.008-.155-.015-.591-.079-1.181-.162-1.772-.236a6.287,6.287,0,0,1-1.039-.123.7.7,0,0,0-.842.264c-.627.816-1.24,1.643-1.849,2.472-.627.854-1.237,1.722-1.867,2.575-.587.8-1.2,1.572-1.784,2.369-.389.53-.733,1.093-1.124,1.621-.729.985-1.485,1.951-2.217,2.933-.5.676-.984,1.369-1.482,2.049-.779,1.062-1.567,2.118-2.347,3.179-.335.456-.656.922-.994,1.376-.523.7-1.058,1.4-1.583,2.1-.494.659-.987,1.318-1.469,1.986-.337.466-.648.95-.984,1.417-.077.107-.217.249-.313.239s-.182-.121-.242-.228l-.031-.062-1.3-3.029c-.225-.517-.491-1.017-.716-1.534-.387-.892-.755-1.792-1.135-2.688-.068-.159-.162-.307-.229-.467-.248-.6-.477-1.2-.737-1.794-.57-1.3-1.164-2.582-1.73-3.88-.409-.94-.784-1.895-1.181-2.84-.281-.669-.555-1.343-.872-2-.118-.243-.149-.6-.539-.636-.688-.06-1.376-.127-2.064-.191a9.712,9.712,0,0,1-1.447-.144,31.822,31.822,0,0,0-3.587-.421c-.766-.1-1.535-.172-2.3-.26q-1.319-.152-2.637-.311c-1.029-.125-2.057-.26-3.087-.381-.778-.091-1.557-.17-2.336-.248-.493-.05-.989-.075-1.481-.134-.765-.092-1.527-.216-2.292-.3-.85-.1-1.7-.165-2.553-.257-.91-.1-1.819-.212-2.729-.316-1.125-.128-2.25-.249-3.374-.382a.323.323,0,0,1-.232-.141.345.345,0,0,1,.063-.264c.113-.172.252-.325.373-.492.506-.7,1.007-1.405,1.515-2.1.5-.683,1-1.36,1.5-2.04.554-.755,1.1-1.515,1.661-2.266.721-.966,1.457-1.92,2.176-2.887.361-.486.689-1,1.047-1.486.506-.689,1.028-1.365,1.54-2.05Q22,57.386,23.022,56c.171-.231.351-.455.192-.786-.539-1.127-1.058-2.262-1.514-3.429-.43-1.1-.955-2.163-1.438-3.243-.313-.7-.633-1.4-.941-2.1L18.5,44.568l-.81-1.879-.644-1.564c-.286-.669-.584-1.333-.876-2-.453-1.035-.9-2.072-1.36-3.106-.339-.77-.689-1.534-1.024-2.305-.474-1.093-.935-2.192-1.41-3.285-.4-.912-.807-1.818-1.2-2.732a.442.442,0,0,1,.026-.35c.03-.051.2-.025.3-.026.136,0,.272,0,.407.011.483.042.967.076,1.447.137.9.113,1.789.249,2.685.364.308.04.62.036.929.072.654.075,1.305.17,1.959.245.809.092,1.62.163,2.429.259.98.116,1.957.255,2.937.371.8.1,1.6.173,2.4.257,1,.105,2.01.206,3.014.315.49.053.984.1,1.467.191a.859.859,0,0,0,.958-.3c.42-.571.83-1.15,1.246-1.725l1.046-1.453q.263-.362.53-.721c.573-.768,1.17-1.519,1.745-2.286.3-.4.576-.826.874-1.231.353-.482.723-.951,1.077-1.432.292-.4.563-.811.859-1.205.588-.783,1.194-1.551,1.779-2.336.535-.717,1.051-1.448,1.576-2.173.568-.783,1.131-1.569,1.707-2.345.614-.827,1.25-1.638,1.862-2.467.9-1.225,1.8-2.458,2.692-3.689l.417-.587L49.961,5ZM83.2,74.684q.632.032,1.261.105c.785.092,1.569.2,2.353.3.1.014.275.045.29.1a.757.757,0,0,1-.051.379.729.729,0,0,1-.136.2c-.644.855-1.284,1.713-1.936,2.563-.352.459-.7.921-1.089,1.349-.43.476-.9.912-1.353,1.373-.538.553-1.045,1.139-1.609,1.663q-1.13,1.052-2.329,2.028-1.389,1.13-2.835,2.189c-.578.423-1.2.789-1.812,1.159-.885.533-1.769,1.071-2.678,1.561s-1.822.939-2.754,1.362c-.957.434-1.93.836-2.911,1.212-.8.307-1.616.581-2.437.824-.871.258-1.754.479-2.639.684-.846.2-1.7.357-2.555.521q-1.056.2-2.117.372a6.715,6.715,0,0,1-1.165.122,1.564,1.564,0,0,0-.762.117c-.239.116-.4.007-.4-.285a2.77,2.77,0,0,1,.171-.272c.107-.14.236-.261.34-.4.647-.878,1.276-1.77,1.942-2.633.155-.2.283-.445.625-.5,1.057-.171,2.115-.362,3.152-.625,1.286-.326,2.561-.706,3.824-1.112.775-.249,1.52-.591,2.28-.887.322-.125.664-.21.971-.364.694-.348,1.371-.732,2.059-1.092.579-.3,1.185-.561,1.743-.9.911-.553,1.8-1.145,2.682-1.742q1.007-.681,1.977-1.418c.582-.444,1.144-.916,1.7-1.392.45-.385.888-.784,1.315-1.195.49-.471.963-.96,1.441-1.443.323-.326.666-.637.957-.99.762-.922,1.5-1.865,2.253-2.8A.353.353,0,0,1,83.2,74.684Zm-69.788.692c.214.018.425.065.638.088.267.029.536.038.8.071.806.1,1.611.2,2.415.314a1.085,1.085,0,0,1,.773.323c.4.491.793.981,1.2,1.458.229.265.487.5.734.753s.507.5.753.755c.387.4.748.829,1.157,1.207.477.441.985.85,1.493,1.256.843.676,1.678,1.365,2.552,2,.787.573,1.611,1.1,2.436,1.614.721.452,1.45.9,2.2,1.286.952.493,1.919.965,2.907,1.378a29.22,29.22,0,0,0,4,1.535c1.325.339,2.621.772,3.972,1.031a34.629,34.629,0,0,0,3.6.612.442.442,0,0,1,.3.231c.29.668.545,1.351.837,2.018.171.392.394.76.578,1.146a.359.359,0,0,1,.012.292.423.423,0,0,1-.194.129c-.417-.041-.743-.081-1.071-.1a7.364,7.364,0,0,1-.752-.011c-1.18-.2-2.36-.4-3.533-.632-1.052-.212-2.1-.455-3.139-.718-.552-.139-1.086-.35-1.629-.528-.911-.3-1.829-.576-2.73-.9-.6-.215-1.169-.492-1.748-.751l-1.113-.49c-.37-.165-.736-.337-1.093-.528-.945-.506-1.855-1.078-2.782-1.617-.556-.324-1.131-.618-1.672-.966-.457-.294-.876-.648-1.314-.972l-1.408-1.031q-.351-.259-.7-.524c-.491-.377-.965-.778-1.431-1.185-.5-.434-.984-.879-1.457-1.338-.347-.336-.66-.708-1-1.055-.394-.406-.816-.785-1.191-1.207-.662-.742-1.312-1.495-1.94-2.266-.612-.751-1.194-1.526-1.776-2.3-.062-.082-.038-.229-.053-.345l.232-.031A.665.665,0,0,1,13.416,75.376ZM59.009,68.1a2.021,2.021,0,0,0-.373.34A29.891,29.891,0,0,1,56.1,71.683a12.42,12.42,0,0,1-3.051,2.388,11.467,11.467,0,0,1-1.966,1.054,13.912,13.912,0,0,1-3.659.974c-.453.029-.9.091-1.358.119-.327.021-.435.147-.306.449l.435.987.44.985.792,1.824c.279.636.57,1.267.845,1.905.4.932.789,1.871,1.19,2.8.223.518.461,1.028.691,1.543.121.272.234.547.358.817.117.254.3.275.451.053.457-.657.9-1.326,1.37-1.974s.976-1.275,1.458-1.917c.507-.675,1-1.358,1.506-2.034s1.008-1.327,1.5-2c.3-.413.582-.847.886-1.261.56-.763,1.135-1.515,1.7-2.278.627-.853,1.244-1.713,1.869-2.568q.854-1.171,1.715-2.337c.282-.381.58-.749.857-1.133.16-.222.093-.336-.167-.362a7.919,7.919,0,0,1-2.8-.747q-.769-.388-1.543-.766C59.239,68.175,59.159,68.156,59.009,68.1ZM51.031,51.872a1.6,1.6,0,0,0-.432.286q-.379.5-.753,1l-1.494,2.006c-.229.305-.477.6-.708.9s-.444.618-.672.923q-.684.915-1.375,1.825-1.09,1.441-2.183,2.879l-2.426,3.2q-.9,1.194-1.809,2.388c-.08.106-.124.241-.208.342-.072.086-.183.2-.27.2a.418.418,0,0,1-.295-.2c-.18-.376-.349-.758-.518-1.14l-.254-.572-.586-1.291c-.239-.531-.479-1.062-.713-1.6-.161-.367-.307-.74-.47-1.105q-.738-1.656-1.485-3.309c-.244-.54-.5-1.074-.745-1.613-.316-.692-.632-1.384-.939-2.08-.335-.761-.647-1.533-.991-2.29-.312-.684-.326-.68-.894-.209-.39.323-.784.642-1.162.979a15.291,15.291,0,0,0-2.1,2.564c-.469.651-.956,1.29-1.434,1.934q-.755,1.016-1.51,2.033c-.778,1.05-1.558,2.1-2.33,3.153-.425.581-.83,1.176-1.254,1.758-.539.74-1.1,1.467-1.629,2.212a14.819,14.819,0,0,1-1.639,2.1.367.367,0,0,0-.089.316c.028.074.181.129.285.141.809.091,1.619.164,2.428.253q1.381.152,2.76.321c.59.073,1.178.165,1.768.245.336.046.673.09,1.01.126.645.068,1.292.126,1.937.2.921.1,1.841.209,2.762.308.472.051.947.08,1.418.135.51.06,1.017.141,1.525.209.143.019.288.026.431.041.645.067,1.291.13,1.936.2.449.051.9.12,1.345.175.858.105,1.715.212,2.574.307.5.056,1.009.086,1.512.136q.891.09,1.781.2a10.89,10.89,0,0,0,3.214.115c.946-.167,1.886-.37,2.826-.571a1.873,1.873,0,0,0,.538-.22c.823-.48,1.647-.959,2.455-1.464a3.169,3.169,0,0,0,.4-.31l.382-.344a11.307,11.307,0,0,0,1.834-2.159c.177-.257.376-.5.571-.742l.286-.371,1.23-1.736c.7-.966,1.415-1.923,2.118-2.888.957-1.314,1.905-2.633,2.862-3.947.709-.973,1.431-1.936,2.138-2.911a5.755,5.755,0,0,0,.585-.932c.131-.282.025-.364-.285-.4-.673-.068-1.343-.166-2.016-.241-.646-.072-1.294-.125-1.939-.2L59.4,53.02l-.933-.124-2.253-.329c-1.1-.151-2.2-.3-3.3-.435-.614-.076-1.23-.127-1.846-.189ZM9.638,30.617a1.194,1.194,0,0,1,.13.226c.063.195.086.405.166.591.471,1.093.961,2.177,1.424,3.273a.923.923,0,0,1,.039.583c-.342,1.105-.717,2.2-1.07,3.3-.156.487-.307.978-.425,1.475-.164.689-.29,1.387-.441,2.079-.074.34-.2.671-.247,1.014-.124.932-.164,1.879-.336,2.8a28.359,28.359,0,0,0-.224,3.359,16.382,16.382,0,0,0,.054,1.973c.052.955.1,1.911.191,2.863.08.874.163,1.752.322,2.614.225,1.22.482,2.438.8,3.638a24.1,24.1,0,0,0,1.031,3.311c.334.791.636,1.6.939,2.4a.446.446,0,0,1-.013.346c-.264.416-.548.819-.833,1.222-.38.537-.767,1.069-1.152,1.6-.082.113-.17.221-.3.395-.181-.318-.35-.564-.467-.832-.307-.705-.569-1.43-.888-2.129A29.289,29.289,0,0,1,6.739,62.1c-.262-.98-.527-1.962-.724-2.957-.23-1.16-.4-2.333-.571-3.5-.11-.757-.184-1.52-.251-2.283-.061-.694-.088-1.391-.134-2.086a.13.13,0,0,0-.035-.064L5,51.178v-2.46c.019-.022.053-.042.055-.065.088-1.181.168-2.363.262-3.543.035-.442.094-.884.162-1.323.079-.508.181-1.012.274-1.517.139-.758.247-1.524.426-2.273.224-.933.5-1.853.767-2.775.213-.737.438-1.471.668-2.2.147-.468.291-.94.475-1.394.226-.558.491-1.1.742-1.649.183-.4.364-.8.563-1.192C9.433,30.706,9.555,30.671,9.638,30.617Zm80.879-.21c.069.148.106.311.17.461.353.821.7,1.646,1.068,2.457a23.679,23.679,0,0,1,1.234,3.44c.227.8.472,1.593.672,2.4.232.936.451,1.877.624,2.825.146.8.222,1.615.322,2.424.053.432.09.865.138,1.3.078.7.19,1.395.231,2.1.04.681.009,1.366.008,2.05,0,.778.039,1.559-.011,2.333-.062.96-.2,1.915-.3,2.871-.1.914-.18,1.832-.323,2.739a23.334,23.334,0,0,1-.524,2.566c-.4,1.442-.816,2.881-1.3,4.295A32.229,32.229,0,0,1,90.7,69.135a1.05,1.05,0,0,1-.2.21c-.067-.07-.16-.129-.2-.212-.238-.522-.467-1.047-.692-1.575-.294-.688-.594-1.375-.867-2.072a1.228,1.228,0,0,1-.126-.711c.346-1.147.779-2.268,1.107-3.42.336-1.182.6-2.386.866-3.588.159-.723.259-1.458.379-2.189.071-.437.142-.876.19-1.316.057-.526.1-1.055.126-1.583.048-1.143.1-2.286.106-3.43,0-.717-.057-1.435-.107-2.152-.051-.735-.091-1.473-.2-2.2-.131-.9-.313-1.8-.492-2.7-.189-.946-.355-1.9-.615-2.828-.352-1.253-.777-2.485-1.184-3.722a11.716,11.716,0,0,0-.59-1.582c-.249-.5-.293-.574.011-1.019.093-.136.177-.278.274-.411.556-.766,1.109-1.534,1.675-2.292C90.285,30.177,90.434,30.228,90.517,30.407ZM45.984,35.3a.437.437,0,0,0-.023.383c.21.509.456,1,.674,1.508.256.592.495,1.191.744,1.786.273.651.556,1.3.823,1.952.321.786.62,1.581.947,2.364.473,1.136.962,2.265,1.443,3.4a13.758,13.758,0,0,0,.552,1.269.879.879,0,0,0,.523.419c.729.126,1.47.18,2.206.274.917.117,1.832.258,2.749.369.829.1,1.661.167,2.491.262.664.076,1.324.179,1.988.258.43.051.864.073,1.294.12.254.028.5.081.757.12.415.065.83.136,1.246.191.581.077,1.164.14,1.745.213.418.052.835.112,1.253.167.55.073,1.1.143,1.65.22.508.07,1.014.15,1.522.218.066.009.143-.052.207-.04.153.029.3.083.452.126a1.4,1.4,0,0,1-.137.416c-.5.67-1.025,1.318-1.519,1.991-.564.77-1.1,1.564-1.655,2.34-.679.944-1.367,1.881-2.053,2.82-.419.573-.849,1.138-1.263,1.714-.7.967-1.377,1.943-2.073,2.909-.422.584-.851,1.164-1.3,1.728-.2.256.007.355.146.434a5.252,5.252,0,0,0,.868.388c.6.206,1.2.417,1.811.569a5.445,5.445,0,0,0,.681.116l.69.074c.726.087,1.452.171,2.178.247.677.071,1.357.123,2.034.2.848.094,1.694.207,2.542.3.451.052.9.085,1.355.136.521.059,1.042.127,1.562.195.448.058.894.135,1.344.179.966.094,1.934.158,2.9.26,1.023.108,2.042.249,3.064.371a.891.891,0,0,0,.311-.015c.344-.084.369-.206.209-.518-.288-.565-.552-1.142-.811-1.72-.431-.965-.851-1.935-1.273-2.9-.245-.562-.484-1.127-.726-1.69q-.413-.962-.827-1.924c-.335-.783-.665-1.568-1-2.349-.3-.7-.622-1.384-.922-2.081-.619-1.442-1.223-2.891-1.846-4.33-.4-.932-.84-1.851-1.248-2.782-.37-.844-.714-1.7-1.082-2.545-.307-.705-.646-1.4-.947-2.1A9.836,9.836,0,0,0,70.508,40.8a9.937,9.937,0,0,0-2.277-2,11.641,11.641,0,0,0-2.5-1.193,15.253,15.253,0,0,0-2.43-.493c-.792-.124-1.588-.223-2.385-.314-.534-.061-1.073-.076-1.607-.134-.828-.09-1.653-.2-2.48-.3-.43-.051-.861-.095-1.292-.136-.33-.032-.66-.055-.991-.082l-.005.052c-.861-.094-1.722-.193-2.584-.282-.882-.091-1.767-.164-2.648-.26-.49-.053-.976-.139-1.464-.21l-.275-.039c-.4-.054-.791-.115-1.188-.156C46.246,35.238,46.063,35.228,45.984,35.3Zm3.3-23.158c-.074-.007-.178.1-.237.185-.287.4-.556.815-.844,1.215-.5.693-1,1.38-1.511,2.067-.745,1.011-1.5,2.017-2.239,3.03-.849,1.157-1.685,2.323-2.538,3.476-.551.746-1.128,1.473-1.683,2.216Q38.959,26.041,37.7,27.76c-.523.713-1.029,1.44-1.554,2.152-.782,1.061-1.586,2.1-2.359,3.172a12.835,12.835,0,0,0-1.793,3.146,10.848,10.848,0,0,0-.684,2.9c-.025.353-.059.705-.081.962a14.921,14.921,0,0,0,.3,2.621,14.441,14.441,0,0,0,.944,2.691c.656,1.413,1.234,2.863,1.864,4.289.427.966.9,1.912,1.33,2.876.59,1.323,1.155,2.656,1.738,3.982.326.742.668,1.478,1,2.216.2.447.439.883.6,1.345.076.223.073.464.279.63.181.145.417.134.491-.079a9.173,9.173,0,0,1,1.5-2.1c.532-.77,1.093-1.521,1.656-2.269.428-.568.892-1.11,1.318-1.68.332-.443.623-.917.948-1.366.2-.276.43-.529.644-.795l.553-.688.549-.691.794-1.026a1.247,1.247,0,0,0-.058-1.005c-.286-.619-.53-1.258-.8-1.885-.092-.214-.2-.424-.294-.635l-.143-.319-.875-2.132c-.32-.764-.656-1.52-.974-2.285-.54-1.3-1.069-2.6-1.606-3.9-.255-.615-.517-1.227-.778-1.84q-.77-1.81-1.542-3.62c-.144-.336-.295-.67-.443-1-.121-.272-.066-.383.224-.361.174.013.348.03.522.048l1.043.118c.482.051.966.089,1.447.146.827.1,1.652.211,2.479.307.339.039.683.038,1.023.072.779.077,1.557.166,2.336.248q1.246.13,2.492.255c1.078.107,2.157.2,3.234.317.225.024.449.05.674.078l1.346.172c.458.057.622-.183.5-.624a11.763,11.763,0,0,1-.21-1.215,14.88,14.88,0,0,0-1.156-3.271c-.3-.709-.591-1.422-.9-2.127-.551-1.249-1.122-2.489-1.669-3.74-.39-.891-.757-1.792-1.134-2.688-.024-.057-.044-.115-.069-.171-.687-1.525-1.383-3.047-2.06-4.578-.3-.674-.552-1.368-.837-2.049C49.468,12.266,49.366,12.152,49.284,12.145Zm-31.871,19.5a1.517,1.517,0,0,0-.457.114c.046.125.087.252.138.375.078.187.162.372.244.558l.4.883.389.886,1.14,2.718c.084.2.222.368.307.564q.987,2.284,1.962,4.574c.479,1.121.95,2.245,1.433,3.364.183.425.4.836.584,1.26.438,1.007.863,2.02,1.3,3.028.093.216.217.418.31.634.157.366.292.743.454,1.106s.36.374.61.072A12.3,12.3,0,0,1,29.2,49.153c.165-.1.311-.241.481-.333.28-.151.238-.366.12-.574a15.715,15.715,0,0,1-1.315-3.071,19.127,19.127,0,0,1-.611-2.123c-.172-.913-.24-1.845-.353-2.769l.088-.011a11.968,11.968,0,0,1,.692-4.353c.284-.813.616-1.61.944-2.406.195-.472.145-.534-.362-.574-.665-.052-1.326-.159-1.989-.243-.5-.063-1-.145-1.5-.188-1.122-.1-2.248-.157-3.369-.263-.518-.049-1.028-.181-1.544-.256-.5-.072-1-.121-1.5-.177C18.457,31.753,17.936,31.684,17.413,31.647Zm42.843-4.011a.446.446,0,0,0-.08.329c.2.644.472,1.269.619,1.923a8.833,8.833,0,0,1,.345,2.544,3.313,3.313,0,0,0,0,.506c.024.287.248.361.478.384.935.092,1.875.137,2.8.266a12.129,12.129,0,0,1,3.294.93c.5.225,1.037.393,1.523.65a13.569,13.569,0,0,1,1.336.874,14.753,14.753,0,0,1,2.571,2.194,18.845,18.845,0,0,1,1.314,1.644c.153.213.212.492.481.559l7.536-10.226a3.857,3.857,0,0,0-.561-.165c-.7-.093-1.408-.173-2.113-.248-.329-.035-.663-.031-.991-.075-.65-.088-1.3-.2-1.945-.3-.418-.059-.839-.1-1.259-.142l-1.428-.157-1.429-.153-.96-.071c-.584-.059-1.167-.129-1.75-.2l-.766-.09-.766-.091-2.176-.26c-.49-.059-.979-.121-1.468-.181-.674-.083-1.347-.17-2.022-.245-.319-.036-.641-.035-.96-.073-.458-.053-.914-.131-1.372-.187C60.425,27.574,60.292,27.584,60.257,27.636ZM46.438,5.153a.441.441,0,0,1-.064.318c-.135.206-.3.391-.449.59q-.523.707-1.039,1.419c-.32.441-.627.892-.964,1.319a1.138,1.138,0,0,1-.447.3,2.909,2.909,0,0,1-.478.1,12.76,12.76,0,0,1-1.46.335,7.836,7.836,0,0,0-1.559.324c-.8.257-1.619.429-2.413.691-1,.33-1.978.71-2.963,1.078-.487.182-.975.365-1.445.584q-1.163.54-2.3,1.131c-.554.286-1.093.6-1.631.918-.574.337-1.144.68-1.7,1.04-.431.277-.85.574-1.264.877s-.815.628-1.223.941l-.954.715c-.158.121-.313.244-.465.372-.709.6-1.4,1.222-2.087,1.842-.341.306-.691.606-1,.944-.58.635-1.138,1.291-1.693,1.948-.493.584-.963,1.187-1.459,1.77-.205.241-.349.594-.776.515-.471-.032-.956-.05-1.438-.1-.623-.067-1.244-.153-1.863-.247-.131-.02-.337-.086-.358-.169-.029-.116.078-.27.14-.4.025-.054.089-.089.125-.139.517-.7,1-1.433,1.555-2.11.849-1.044,1.719-2.074,2.622-3.071.588-.649,1.245-1.237,1.883-1.84a27.8,27.8,0,0,1,3.027-2.609c.755-.533,1.469-1.125,2.228-1.652.638-.442,1.307-.841,1.976-1.236,1.057-.625,2.1-1.276,3.2-1.833,1.13-.576,2.306-1.062,3.47-1.569.486-.212.992-.378,1.489-.562.315-.117.631-.23.947-.343.524-.188,1.041-.4,1.576-.555.687-.195,1.389-.336,2.084-.5.437-.105.869-.233,1.309-.322.663-.133,1.329-.247,2-.356.738-.121,1.478-.233,2.218-.34q.686-.1,1.375-.17C46.253,5.074,46.426,5.107,46.438,5.153Zm7.119-.079c.684.073,1.366.157,2.049.242.458.057.918.107,1.373.186.656.114,1.31.239,1.959.383,1.086.242,2.184.449,3.247.769,1.425.429,2.834.918,4.227,1.444,1.138.43,2.254.924,3.355,1.441.938.441,1.852.938,2.758,1.444a23.013,23.013,0,0,1,2.063,1.266c1.024.722,1.987,1.534,3.02,2.242a27.571,27.571,0,0,1,3.325,2.864c.8.761,1.573,1.554,2.34,2.35.321.334.59.717.89,1.073.524.621,1.062,1.23,1.577,1.857.332.4.639.831.948,1.255a3.116,3.116,0,0,1,.213.447c-.265-.043-.424-.062-.58-.1a3.2,3.2,0,0,0-.474-.121c-.368-.02-.74.017-1.105-.018-.612-.06-1.219-.165-1.83-.239a1.7,1.7,0,0,1-1.256-.538,26.577,26.577,0,0,0-2.934-3.158c-.771-.669-1.519-1.366-2.288-2.037-.427-.373-.864-.737-1.321-1.073-.835-.613-1.68-1.215-2.538-1.8-.422-.286-.882-.515-1.325-.769-.737-.423-1.46-.871-2.213-1.262-.843-.438-1.7-.859-2.575-1.223-1.243-.518-2.5-1.007-3.771-1.452-.865-.3-1.759-.533-2.649-.756q-1.427-.356-2.874-.63c-.655-.123-1.326-.161-1.984-.271a.714.714,0,0,1-.436-.3,8.413,8.413,0,0,1-.368-.834c-.349-.738-.713-1.468-1.054-2.209a.641.641,0,0,1-.007-.394C53.33,5.116,53.477,5.066,53.557,5.075Z"/>
  </g>
</svg>
