<svg id="nym-logo--colorless" xmlns="http://www.w3.org/2000/svg" xmlns:xlink="http://www.w3.org/1999/xlink" width="500.2" height="500.1" viewBox="0 0 500.2 500.1">
    <defs>
        <linearGradient id="linear-gradient" y1="11.226" x2="1" y2="11.226" gradientUnits="objectBoundingBox">
            <stop offset="0" stop-color="#e1864b"/>
            <stop offset="1" stop-color="#da465b"/>
        </linearGradient>
    </defs>
    <g id="Groupe_2" data-name="Groupe 2">
        <circle id="Ellipse_2" data-name="Ellipse 2" cx="239.8" cy="239.8" r="239.8" transform="translate(10.2 10.3)" fill="#121726"/>
        <path id="Tracé_17" data-name="Tracé 17" d="M250,500.1A250.236,250.236,0,0,1,42.7,389.8a253.109,253.109,0,0,1-23.1-42.5A249.8,249.8,0,0,1,5,300.4a263.98,263.98,0,0,1-5-50.3,250.537,250.537,0,0,1,5.1-50.4A250.862,250.862,0,0,1,73.3,73.3a251,251,0,0,1,37-30.5,257.066,257.066,0,0,1,42.5-23.1,250.143,250.143,0,0,1,304.6,90.6,257.067,257.067,0,0,1,23.1,42.5,250.143,250.143,0,0,1-90.6,304.6,257.067,257.067,0,0,1-42.5,23.1,249.8,249.8,0,0,1-46.9,14.6A266.066,266.066,0,0,1,250,500.1Zm0-479.6a230.891,230.891,0,0,0-46.3,4.7,226.407,226.407,0,0,0-43.1,13.4,231.838,231.838,0,0,0-73,49.2,228.031,228.031,0,0,0-28,34,233.662,233.662,0,0,0-21.2,39A222.045,222.045,0,0,0,25,203.9a230.4,230.4,0,0,0,0,92.6,226.406,226.406,0,0,0,13.4,43.1,231.838,231.838,0,0,0,49.2,73,228.032,228.032,0,0,0,34,28,233.664,233.664,0,0,0,39,21.2,222.045,222.045,0,0,0,43.1,13.4,230.4,230.4,0,0,0,92.6,0,226.407,226.407,0,0,0,43.1-13.4,231.839,231.839,0,0,0,73-49.2,228.031,228.031,0,0,0,28-34,233.663,233.663,0,0,0,21.2-39A222.044,222.044,0,0,0,475,296.5a230.4,230.4,0,0,0,0-92.6,226.408,226.408,0,0,0-13.4-43.1,231.839,231.839,0,0,0-49.2-73,228.029,228.029,0,0,0-34-28,233.661,233.661,0,0,0-39-21.2A229.261,229.261,0,0,0,250,20.5Z" fill="url(#linear-gradient)"/>
    </g>
    <path id="Tracé_18" data-name="Tracé 18" d="M369.8,341.2H317l-144-142v142H130.2V158.9h54.1l144,141.9V158.9h41.5Z" fill="#fff"/>
</svg>
