<svg xmlns="http://www.w3.org/2000/svg" viewBox="0 0 36 36">
  <g stroke-width="0">
    <path fill-rule="evenodd" clip-rule="evenodd" d="M21.344 19.1388L23.1117 17.9888L21.3629 16.8548C21.352 16.9112 21.3448 16.9328 21.3448 16.954C21.344 17.6636 21.344 18.3728 21.344 19.1388ZM14.4062 16.8456L12.6445 17.9904L14.4062 19.1328V16.8456ZM20.6029 20.4256L18.6191 21.5752L20.4957 22.5352L20.6029 20.4256ZM17.1383 21.5744L15.1553 20.4268L15.2613 22.5352L17.1383 21.5744ZM20.6025 15.5532L20.4957 13.4436L18.6196 14.4064L20.6021 15.5532H20.6025ZM15.2601 13.4432L15.1561 15.5528L17.1371 14.4056L15.2601 13.4432ZM20.6275 17.9988C20.6275 17.5216 20.6251 17.0444 20.6287 16.5668C20.6295 16.4512 20.5953 16.3768 20.4889 16.316C19.6584 15.8408 18.8302 15.3617 18.0042 14.8788C17.9128 14.8252 17.8451 14.8248 17.7532 14.8788C16.9271 15.3612 16.099 15.8403 15.2689 16.316C15.1722 16.3716 15.1295 16.4348 15.1299 16.5492C15.1339 17.5092 15.1339 18.47 15.1299 19.43C15.1299 19.5444 15.1718 19.608 15.2685 19.6636C16.0986 20.1394 16.9267 20.6186 17.7528 21.1012C17.8447 21.1548 17.912 21.1548 18.0038 21.1012C18.8298 20.6182 19.658 20.1392 20.4885 19.664C20.5949 19.6032 20.6295 19.5288 20.6283 19.4128C20.6243 18.9416 20.6267 18.47 20.6271 17.9988H20.6275ZM5.91786 10.2836C5.66239 10.3288 5.4053 10.3664 5.15224 10.4212C5.00516 10.4532 4.93222 10.5652 4.98219 10.7108C5.0648 10.9508 5.14015 11.1996 5.26588 11.4168C5.78045 12.3068 6.49571 13.0304 7.22909 13.736C7.26133 13.7672 7.35482 13.768 7.40156 13.7452C7.83394 13.5332 8.30137 13.584 8.65073 13.8904C8.99527 14.1924 9.11172 14.6448 8.95175 15.0964C8.91951 15.1872 8.92354 15.2404 9.00413 15.3012C9.9805 16.03 10.9532 16.7636 11.9308 17.4904C11.9719 17.5208 12.0678 17.5244 12.1105 17.4972C12.8627 17.0173 13.6122 16.5333 14.3591 16.0452C14.3961 16.0208 14.434 15.9664 14.4364 15.9244C14.4864 15.0304 14.5331 14.1364 14.5722 13.2424C14.5746 13.1864 14.5206 13.098 14.4695 13.074C12.5933 12.186 10.6833 11.3828 8.6862 10.8068C7.78316 10.5464 6.86885 10.3388 5.91786 10.2836ZM15.3209 23.2996C15.3435 23.5428 15.3608 23.786 15.3898 24.0276C15.5075 25.0028 15.6288 25.9776 15.7493 26.952C15.7601 27.0408 15.7803 27.1056 15.8943 27.1304C16.3505 27.2308 16.6459 27.5196 16.7422 27.9748C16.8401 28.4396 16.6716 28.8208 16.2933 29.104C16.2232 29.156 16.1696 29.1936 16.2018 29.2976C16.4275 30.0172 16.6201 30.7484 16.8808 31.4548C17.0315 31.8628 17.2612 32.2512 17.5066 32.6132C17.7786 33.0144 17.9672 33.0112 18.2472 32.6196C18.4584 32.3244 18.6445 32.0036 18.79 31.6708C19.3425 30.4072 19.6608 29.072 19.8687 27.7156C20.0875 26.286 20.2419 24.8468 20.4288 23.4124C20.4417 23.3108 20.4047 23.2744 20.3221 23.2324C19.5588 22.8451 18.7982 22.4528 18.0401 22.0556C17.9176 21.9916 17.8241 21.9916 17.7089 22.0612C17.5404 22.1628 17.3635 22.2504 17.189 22.3404C16.5677 22.6604 15.9459 22.9788 15.3209 23.2996ZM23.744 17.5508C25.0584 16.6416 26.333 15.6812 27.5419 14.636C28.4965 13.8108 29.4217 12.952 30.1599 11.9192C30.3936 11.5928 30.577 11.2232 30.7369 10.8532C30.8655 10.556 30.7825 10.4504 30.4633 10.3764C30.0443 10.2792 29.6216 10.308 29.2005 10.3564C28.3111 10.4588 27.45 10.6904 26.5933 10.9428C26.474 10.9784 26.4233 11.0348 26.3967 11.16C26.2218 11.9968 25.2777 12.3296 24.6253 11.7848C24.5245 11.7008 24.4463 11.6936 24.3331 11.7432C23.3301 12.1824 22.3264 12.6192 21.3202 13.05C21.1937 13.1044 21.1719 13.1808 21.1791 13.306C21.2291 14.1652 21.2702 15.0248 21.3202 15.8836C21.323 15.9416 21.3609 16.0196 21.4072 16.0496C22.1801 16.5512 22.957 17.0468 23.744 17.5508ZM21.3226 20.2932C21.2742 21.1052 21.2291 21.8944 21.1796 22.6832C21.1723 22.7988 21.1916 22.8696 21.3125 22.9264C22.9236 23.6832 24.5604 24.3752 26.254 24.9244C27.3408 25.2772 28.4397 25.5908 29.5881 25.6492C29.9242 25.6664 30.2655 25.6032 30.602 25.5572C30.7478 25.5376 30.8244 25.4184 30.774 25.2708C30.6914 25.0308 30.6157 24.7828 30.4911 24.5648C30.0507 23.7896 29.4471 23.1432 28.8176 22.5224C27.2916 21.0168 25.592 19.7256 23.8435 18.4948C23.7468 18.4268 23.6864 18.4496 23.5997 18.506C22.9413 18.9388 22.2841 19.374 21.616 19.792C21.41 19.9208 21.2315 20.0336 21.3226 20.2932ZM12.015 18.426C11.9038 18.504 11.7898 18.5832 11.6766 18.6632C10.0031 19.8492 8.37874 21.0968 6.9168 22.5436C6.29665 23.1572 5.70309 23.7972 5.26588 24.5608C5.14806 24.7736 5.05517 24.999 4.98904 25.2328C4.9286 25.4368 4.97856 25.5184 5.18448 25.566C5.41981 25.62 5.664 25.6624 5.90416 25.662C6.72096 25.6596 7.516 25.49 8.30016 25.2788C10.4387 24.7036 12.4708 23.8468 14.4735 22.912C14.5767 22.864 14.5819 22.7932 14.5767 22.7016C14.5335 21.9468 14.4638 21.1924 14.461 20.4376C14.4598 20.0716 14.3208 19.8896 14.0242 19.7132C13.3432 19.308 12.6864 18.86 12.015 18.426ZM15.3213 12.6732C16.1514 13.106 16.9654 13.5328 17.7842 13.9508C17.8402 13.9796 17.9398 13.9656 18.0006 13.9348C18.7743 13.5428 19.5439 13.142 20.3176 12.75C20.4099 12.7032 20.4397 12.6596 20.4276 12.5548C20.368 12.0236 20.3216 11.4908 20.2624 10.9588C20.0891 9.39241 19.8494 7.83722 19.4577 6.30882C19.2353 5.44122 18.979 4.58362 18.5394 3.79682C18.4165 3.57682 18.2537 3.37402 18.0844 3.18562C17.9329 3.01762 17.8185 3.01322 17.6738 3.18562C17.4743 3.42362 17.2821 3.67682 17.1367 3.95002C16.7611 4.65562 16.5298 5.41882 16.3295 6.19002C15.7775 8.31762 15.5131 10.4908 15.3213 12.6732ZM11.4013 17.9932C11.0874 17.7672 10.7832 17.5572 10.4894 17.3332C9.83427 16.8338 9.1824 16.3302 8.53388 15.8224C8.43717 15.7464 8.35778 15.7288 8.2369 15.7652C7.4608 16.0004 6.71129 15.3276 6.85273 14.5252C6.87207 14.414 6.84548 14.344 6.76448 14.2668C5.96662 13.5016 5.201 12.7084 4.64088 11.7428C4.44867 11.4108 4.28145 11.0644 4.27742 10.6668C4.27298 10.2168 4.46439 9.94081 4.88427 9.77281C5.21873 9.63881 5.57092 9.61241 5.92391 9.61601C6.9442 9.62681 7.92783 9.85921 8.90178 10.1376C10.7836 10.676 12.5889 11.4176 14.3643 12.2376C14.4473 12.2764 14.5311 12.3136 14.6335 12.36C14.6617 12.1112 14.6855 11.8776 14.7145 11.644C14.8293 10.7292 14.9345 9.81321 15.0638 8.90041C15.2259 7.74809 15.471 6.60877 15.7972 5.49122C16.0144 4.75042 16.2606 4.01842 16.6644 3.35602C16.8203 3.09854 17.0075 2.86103 17.2217 2.64883C17.6206 2.25723 18.1283 2.27123 18.5434 2.64763C18.9576 3.02363 19.2091 3.50802 19.4291 4.00962C19.8707 5.01602 20.1576 6.07242 20.3708 7.14682C20.5554 8.07802 20.7166 9.01481 20.8528 9.95481C20.9652 10.7296 21.0256 11.512 21.1094 12.2908C21.111 12.3068 21.1183 12.3228 21.1276 12.3556C21.4205 12.2236 21.7062 12.0884 21.9968 11.9644C22.6878 11.6696 23.3801 11.3768 24.0748 11.0912C24.1889 11.0444 24.2239 10.9872 24.2352 10.8648C24.2787 10.3984 24.5298 10.0724 24.9678 9.91601C25.409 9.75841 25.8035 9.86681 26.1259 10.2056C26.2053 10.2888 26.2681 10.3148 26.3789 10.28C27.2171 10.0168 28.0661 9.79641 28.9377 9.68001C29.5059 9.60401 30.0781 9.56321 30.6463 9.70121C31.3406 9.86921 31.6239 10.3452 31.4248 11.032C31.2539 11.6232 30.9098 12.12 30.5359 12.5964C29.6445 13.7324 28.5892 14.7044 27.4762 15.6104C26.4688 16.4304 25.4271 17.208 24.3952 18.0084C24.3968 18.0096 24.4222 18.038 24.452 18.0592C25.876 19.0624 27.2578 20.12 28.5469 21.2952C29.4193 22.0904 30.2542 22.9224 30.9163 23.9096C31.1492 24.2576 31.3539 24.6216 31.4449 25.0372C31.584 25.6736 31.3228 26.1052 30.6922 26.27C30.203 26.3976 29.7034 26.3912 29.2085 26.3288C26.8145 26.0264 24.6019 25.1352 22.405 24.1972C21.9802 24.016 21.5616 23.82 21.1215 23.6228C21.0933 23.8788 21.0679 24.124 21.0397 24.3688C20.9563 25.0888 20.8995 25.814 20.781 26.5284C20.6118 27.55 20.418 28.5688 20.1967 29.5804C19.9904 30.5264 19.6987 31.4492 19.2635 32.3196C19.0809 32.6848 18.8682 33.0292 18.5664 33.3116C18.1316 33.7176 17.6206 33.7188 17.1886 33.3092C16.7172 32.8628 16.4311 32.2952 16.2203 31.6976C15.9592 30.9564 15.7469 30.1976 15.5224 29.444C15.4902 29.3368 15.4475 29.2824 15.3403 29.246C15.1532 29.1862 14.9857 29.0778 14.855 28.932C14.7244 28.7863 14.6354 28.6085 14.5973 28.4171C14.5592 28.2257 14.5733 28.0277 14.6383 27.8436C14.7033 27.6595 14.8167 27.4959 14.9667 27.37C15.0695 27.282 15.0759 27.192 15.0614 27.08C14.9365 26.108 14.81 25.136 14.6867 24.164C14.6649 23.9916 14.6572 23.8172 14.6407 23.6172C14.4284 23.7144 14.2313 23.8052 14.0335 23.8948C12.2471 24.7028 10.4318 25.4348 8.53468 25.9428C7.7469 26.1536 6.95186 26.3372 6.13304 26.3528C5.79456 26.3596 5.44761 26.3408 5.11718 26.2724C4.40636 26.1252 4.13074 25.6344 4.33504 24.9372C4.5063 24.3516 4.84639 23.8596 5.21631 23.388C6.10725 22.252 7.15898 21.2752 8.27639 20.3744C9.27371 19.5704 10.3133 18.8184 11.334 18.0436L11.4013 17.9936V17.9932ZM19.7462 17.9892C19.7454 19.0108 18.898 19.8472 17.8684 19.8424C16.8465 19.8376 16.0104 19.0024 16.0104 17.9876C16.0104 16.9664 16.859 16.1288 17.8878 16.134C18.9093 16.1392 19.747 16.9752 19.7462 17.9892ZM18.0002 0.593229C15.6501 0.593229 13.3702 1.05323 11.2248 1.96083C9.15398 2.83608 7.27454 4.1031 5.6914 5.69122C4.09981 7.27937 2.83298 9.15832 1.9608 11.2244C1.05339 13.3695 0.588352 15.6734 0.593156 18C0.588352 20.3266 1.05339 22.6305 1.9608 24.7756C2.83299 26.8417 4.09982 28.7206 5.6914 30.3088C7.27456 31.8969 9.15399 33.1639 11.2248 34.0392C13.3666 34.946 15.6717 35.4114 18.0002 35.4072C20.3503 35.4072 22.6302 34.9472 24.7756 34.0392C26.8464 33.1639 28.7258 31.8969 30.309 30.3088C31.9006 28.7206 33.1674 26.8417 34.0396 24.7756C34.947 22.6305 35.4121 20.3266 35.4072 18C35.4121 15.6734 34.947 13.3695 34.0396 11.2244C33.1674 9.15831 31.9006 7.27935 30.309 5.69122C28.7259 4.10311 26.8464 2.83609 24.7756 1.96083C22.6338 1.05396 20.3287 0.588541 18.0002 0.592829V0.593229ZM18.0002 36C15.5704 36 13.213 35.524 10.9939 34.5852C8.85266 33.6802 6.90931 32.3701 5.27232 30.728C3.62672 29.0857 2.31692 27.1428 1.41519 25.0064C0.476298 22.7872 0 20.43 0 18C0 15.57 0.475895 13.2128 1.41439 10.9936C2.31623 8.85718 3.62617 6.91425 5.27192 5.27202C6.9089 3.6299 8.85225 2.31981 10.9935 1.41483C13.2084 0.476952 15.5922 -0.00438531 18.0002 3.01044e-05C20.43 3.01044e-05 22.7874 0.476029 25.0065 1.41483C27.1478 2.31981 29.0911 3.6299 30.7281 5.27202C32.3738 6.91425 33.6838 8.85718 34.5856 10.9936C35.5241 13.2128 36 15.57 36 18C36 20.43 35.5241 22.7872 34.5856 25.0064C33.6838 27.1428 32.3738 29.0858 30.7281 30.728C29.0911 32.3701 27.1478 33.6802 25.0065 34.5852C22.7917 35.523 20.4081 36.0043 18.0002 36Z"></path>
  </g>
</svg>
