<svg xmlns="http://www.w3.org/2000/svg" width="451.72" height="159.599" viewBox="0 0 451.72 159.599">
  <g transform="translate(-9 -11.042)">
    <path d="M9,128.07c0-23.68,15.4-42.73,37.93-42.73,11.1,0,20.87,4.47,27.33,12.09V87H92.65v82H74.26V158.72C67.8,166.33,58,170.64,46.93,170.64,24.4,170.64,9,151.59,9,128.07Zm65.26,0c0-14.41-9.61-25-22.69-25-13.91,0-23.85,10.6-23.85,25s9.94,24.85,23.85,24.85C64.49,152.92,74.26,142.65,74.26,128.07Z"/>
    <path d="M107.89,49.15l18.38-5.45V169H107.89Z"/>
    <path d="M146.65,142.65V102.07H134.56V87h12.09V37.71L165,32.26V87h24.68v15.07H165v41.08c0,8.77,4.14,11.59,8.77,11.59,6.46,0,11.93-4,11.93-4l5.47,13.75a35.36,35.36,0,0,1-19.71,6.13c-16.69.02-24.81-9.09-24.81-27.97Z"/>
    <path d="M200.32,21.74l18.39-5.46V98.76c6-9.11,15.4-13.42,26.34-13.42,21.53,0,29.48,14.08,29.48,36.61v47H256.14V124.26c0-13.23-3.54-21-16.68-21.19-11.5-.18-20.75,9.51-20.75,21V169H200.32Z"/>
    <path d="M285.8,128.07c0-23.52,18.38-42.73,42.23-42.73,21.87,0,39.43,19,39.43,42.07a60.447,60.447,0,0,1-.5,7.12H304.85c2.65,13.09,13.25,19.88,25.51,19.88a41.86,41.86,0,0,0,23.51-7.12l7.29,13.58A55.85,55.85,0,0,1,330,170.64c-23.33,0-44.2-15.57-44.2-42.57ZM349.56,121A22.49,22.49,0,0,0,327,101.41c-10.6,0-19.88,7.78-22.36,19.54Z"/>
    <path d="M377.07,128.07c0-23.68,15.4-42.73,37.93-42.73,11.1,0,20.87,4.47,27.33,12.09V87h18.39v82H442.33V158.72c-6.46,7.61-16.23,11.92-27.33,11.92-22.53,0-37.93-19.05-37.93-42.57Zm65.26,0c0-14.41-9.61-25-22.69-25-13.91,0-23.85,10.6-23.85,25s9.94,24.85,23.85,24.85C432.56,152.92,442.33,142.65,442.33,128.07Z"/>
    <path d="M394.56,49.72a5.27,5.27,0,0,1-3.71-1.54,90.71,90.71,0,0,0-128.45,0,5.25,5.25,0,0,1-7.4-7.42,101.22,101.22,0,0,1,143.29,0,5.25,5.25,0,0,1-3.71,9Z"/>
    <path d="M379.73,64.55A5.19,5.19,0,0,1,376,63a69.78,69.78,0,0,0-98.79,0,5.243,5.243,0,0,1-7.41-7.42,80.25,80.25,0,0,1,113.62,0,5.25,5.25,0,0,1-3.71,9Z"/>
    <path d="M364.89,79.38a5.261,5.261,0,0,1-3.711-1.531,48.8,48.8,0,0,0-69.109,0,5.25,5.25,0,0,1-7.42-7.42,59.31,59.31,0,0,1,84,0,5.24,5.24,0,0,1-3.71,8.95Z"/>
  </g>
</svg>
