<svg xmlns="http://www.w3.org/2000/svg" width="148" height="148.1" viewBox="0 0 148 148.1">
    <g transform="translate(0 -3.4)">
        <path d="M74,9.8A67.6,67.6,0,1,1,6.4,77.3,67.58,67.58,0,0,1,74,9.8h0m0-6.4A73.107,73.107,0,0,0,45.2,9.3,75.106,75.106,0,0,0,21.7,25.2,73.608,73.608,0,0,0,0,77.5a74.816,74.816,0,0,0,5.8,28.8,78.061,78.061,0,0,0,15.9,23.5A74.806,74.806,0,0,0,74,151.5a73.107,73.107,0,0,0,28.8-5.9,75.106,75.106,0,0,0,23.5-15.9A73.955,73.955,0,0,0,148,77.4a73.377,73.377,0,0,0-21.7-52.3A72.371,72.371,0,0,0,102.8,9.2,74.816,74.816,0,0,0,74,3.4Z" fill="currentColor"/>
        <path d="M74,17.9a59.4,59.4,0,1,0,59.4,59.4h0A59.28,59.28,0,0,0,74,17.9ZM56.9,70.2l-9.1,9.1h9.1v9.9a12.7,12.7,0,0,1-25.4,0V65.6a12.7,12.7,0,0,1,25.4,0Zm59.8,9.1v9.9a12.7,12.7,0,1,1-25.4,0V65.6a12.7,12.7,0,1,1,25.4,0v4.8l-9.1,9.1h9.1Z" fill="currentColor"/>
    </g>
</svg>
