<svg version="1.0" xmlns="http://www.w3.org/2000/svg" viewBox="0 0 1024.000000 1024.000000">
  <g stroke-width="0" transform="translate(0.000000,1024.000000) scale(0.100000,-0.100000)" stroke="none">
    <path d="M4880 10159 c-1465 -61 -2842 -773 -3746 -1936 -867 -1114 -1223 -2542 -988 -3958 204 -1231 878 -2359 1871 -3131 1114 -867 2541 -1223 3958 -988 1039 172 2018 685 2757 1442 494 507 856 1076 1110 1742 312 822 401 1750 252 2645 -172 1039 -685 2019 -1442 2757 -811 790 -1835 1274 -2964 1403 -123 14 -543 37 -608 33 -14 0 -104 -4 -200 -9z m475 -359 c1377 -82 2620 -732 3461 -1811 516 -661 845 -1456 954 -2304 131 -1019 -100 -2086 -647 -2988 -342 -565 -821 -1071 -1363 -1440 -632 -430 -1317 -690 -2075 -787 -748 -96 -1533 3 -2255 285 -1227 479 -2196 1448 -2675 2675 -185 475 -286 947 -316 1483 -23 419 27 908 140 1349 257 1008 832 1890 1656 2542 266 210 630 433 935 571 701 319 1466 467 2185 425z"/>
    <path d="M5050 9221 c-45 -14 -84 -39 -118 -74 -29 -30 -92 -193 -483 -1253-248 -670 -455 -1222 -462 -1226 -7 -4 -22 -8 -35 -8 -13 0 -595 -23 -1295-50l-1272 -50 -53 -26 c-148 -72 -180 -285 -59 -401 75 -73 2021 -1602 2031 -1596 6 4 6 -1 1 -13 -4 -10 -163 -566 -353 -1234 -308 -1084 -345 -1223 -346 -1290 -1 -107 41 -182 127 -227 43 -22 154 -29 203 -13 21 7 518 333 1104 724 586 391 1072 711 1080 711 8 0 494 -320 1080 -711 586 -391 1083 -717 1104 -724 60 -19 165 -8 218 23 80 47 127 148 115 245 -6 41 -683 2452 -701 2493 -5 11 -1 18 11 21 23 6 2010 1571 2040 1607 49 58 67 175 39 254 -22 60 -65 107 -120 133 -51 23 -61 24 -1356 75 -718 28 -1305 52 -1306 53 0 0 -202 548 -448 1216 -246 668 -457 1230 -469 1248 -53 79 -181 122 -277 93z"/>
  </g>
</svg>
