<svg xmlns="http://www.w3.org/2000/svg" width="500.192" height="500.091" viewBox="0 0 500.192 500.091">
  <g id="nym-logo--colorless" transform="translate(0 -0.008)">
    <path d="M250,500.1A250.236,250.236,0,0,1,42.7,389.8a253.11,253.11,0,0,1-23.1-42.5A249.8,249.8,0,0,1,5,300.4a263.976,263.976,0,0,1-5-50.3A250.236,250.236,0,0,1,110.3,42.8a257.068,257.068,0,0,1,42.5-23.1,250.143,250.143,0,0,1,304.6,90.6,257.066,257.066,0,0,1,23.1,42.5,250.143,250.143,0,0,1-90.6,304.6,257.065,257.065,0,0,1-42.5,23.1,249.8,249.8,0,0,1-46.9,14.6,266.061,266.061,0,0,1-50.5,5Zm0-479.6a230.77,230.77,0,0,0-46.251,4.69A226.406,226.406,0,0,0,160.6,38.6a231.838,231.838,0,0,0-73,49.2,228.031,228.031,0,0,0-28,34,233.661,233.661,0,0,0-21.2,39A222.044,222.044,0,0,0,25,203.9a230.4,230.4,0,0,0,0,92.6,226.406,226.406,0,0,0,13.4,43.1,231.838,231.838,0,0,0,49.2,73,228.029,228.029,0,0,0,34,28,233.665,233.665,0,0,0,39,21.2,222.049,222.049,0,0,0,43.1,13.4,230.4,230.4,0,0,0,92.6,0,226.4,226.4,0,0,0,43.1-13.4,231.839,231.839,0,0,0,73-49.2,228.033,228.033,0,0,0,28-34,233.665,233.665,0,0,0,21.2-39A222.043,222.043,0,0,0,475,296.5a230.4,230.4,0,0,0,0-92.6,226.408,226.408,0,0,0-13.4-43.1,231.84,231.84,0,0,0-49.2-73,228.032,228.032,0,0,0-34-28,233.66,233.66,0,0,0-39-21.2A229.261,229.261,0,0,0,250,20.5Z"/>
    <path d="M369.8,341.2H317l-144-142v142H130.2V158.9h54.1l144,141.9V158.9h41.5Z"/>
  </g>
</svg>
