<svg xmlns="http://www.w3.org/2000/svg" width="140.912" height="87.335" viewBox="0 0 140.912 87.335">
  <path d="M99.687-248.033a42.57,42.57,0,0,0-28.873,19.74,137.7,137.7,0,0,0-7.091,14.748c-5.9,14.068-7.544,16.28-18.833,25.413a63.657,63.657,0,0,0-6.694,5.956c-1.7,2.156-1.532,4.481.284,5.729,1.361.851,2.893.964,13.1.794,7.147-.057,12.82.113,14.805.511a98.3,98.3,0,0,1,12.876,5.219c11.742,5.559,18.379,7.771,24.562,8.339,13.5,1.191,24.959-3.12,34.772-12.933a33,33,0,0,0,7.544-10.267c2.95-5.9,3.12-7.544.851-7.828-1.3-.17-1.758.284-3.29,3.006-5.219,9.246-16.28,15.883-27.568,16.564A34.513,34.513,0,0,1,82.1-194.2l-1.361-3.347,1.532-.794c7.091-3.687,34.545-14.295,47.762-18.379,12.366-3.857,17.188-4.992,17.982-4.2a16.256,16.256,0,0,1,1.645,4.651c1.532,6.07,1.532,6.07,7.715,2.553,13.784-7.828,21.385-14.578,20.478-18.152-2.156-8.168-50.2,3.29-93.482,22.349l-4.538,1.985-.17-1.815c-.34-3.12,1.021-8.452,3.4-13.444a28.221,28.221,0,0,1,6.637-9.133c9.019-8.962,20.875-12.139,33.468-8.962,4.368,1.078,4.822,1.134,5.616.284,1.475-1.418.284-2.666-4.481-4.708a43.463,43.463,0,0,0-24.616-2.721Z" transform="translate(-37.014 248.726)"/>
</svg>
