<svg version="1.0" xmlns="http://www.w3.org/2000/svg" viewBox="0 0 462 462">
  <g stroke-width="0" transform="translate(-167.435 -308.694)">
    <path d="M325.082,652.979l-5.063,2.919,0-5.845s-.071,2.989,1.278,3.736C322.622,654.521,325.082,652.979,325.082,652.979Z" fill="#8e3315"/>
    <path d="M195.147,646.951A230.142,230.142,0,1,0,602.012,431.726c25.733,81.1-63.859,109.595-63.859,109.595L429.72,597.993,317.027,656.769S240.222,706.213,195.147,646.951Z" fill="#473ade"/>
    <path d="M194.743,647.348A230.194,230.194,0,0,0,601.73,432.132c25.733,81.1-63.981,109.593-63.981,109.593L429.316,598.4,316.623,657.173S239.817,706.61,194.743,647.348Z" fill="none"/>
    <path d="M535.266,535.7l8.371,4.069-8.836,3.546s3.791-1.791,4.244-3.546C539.488,538.046,535.266,535.7,535.266,535.7Z" fill="#251e73"/>
    <path d="M603.405,644.544A230.194,230.194,0,0,0,193.786,434.381C245.5,366.811,320.263,424,320.263,424L428.85,480.376,541.6,539.037S626.134,573.642,603.405,644.544Z" fill="#d71d6a"/>
    <path d="M602.853,644.32a229.508,229.508,0,0,0-408.4-209.537c51.557-67.369,126.1-10.351,126.1-10.351l108.263,56.209,112.417,58.486S625.514,573.629,602.853,644.32Z" fill="none"/>
    <path d="M320.053,429.454l-.1-6.119,5.347,2.978s-2.7-1.586-4.069-.732C319.894,426.418,320.053,429.454,320.053,429.454Z" fill="#741039"/>
    <path d="M398.613,309.231a230.135,230.135,0,1,0-.08,460.27c-78.349-13.154-78.27-114.545-78.27-114.545V421.849S320.263,323.254,398.613,309.231Z" fill="#ff5b25"/>
    <path d="M398.613,308.694a230.412,230.412,0,0,0-.08,460.822c-78.349-25.033-78.27-114.433-78.27-114.433V424S317.413,323.611,398.613,308.694Z" fill="none"/>
    <path d="M398.613,308.694a230.412,230.412,0,0,0-.08,460.822c-78.349-25.033-78.27-114.433-78.27-114.433V424S317.413,323.611,398.613,308.694Z" fill="none"/>
    <path d="M398.534,769.5c-77.745-35.412-78.178-114.455-78.178-114.455S224,709.4,191.557,639.881C191.557,639.881,246.462,769.963,398.534,769.5Z" fill="#473ade"/>
  </g>
</svg>
